<svg width="467" height="256" viewBox="0 0 467 256" fill="none" xmlns="http://www.w3.org/2000/svg">
<path d="M461.412 256C462.181 256 477.362 255.23 481.975 244.644C482.551 243.104 483.32 240.986 483.32 238.099C483.32 228.283 475.056 220.583 464.871 220.583H410.678C399.339 220.583 388.001 220.583 376.663 220.583C375.51 220.583 368.591 219.814 364.171 214.232C361.289 210.382 360.712 205.762 360.712 204.992C360.712 204.223 360.712 203.645 360.712 203.26C360.712 194.021 367.438 186.514 376.086 184.974H464.871C475.056 184.974 483.32 176.698 483.32 166.496V165.919C483.32 155.717 475.056 147.441 464.871 147.441H390.499C380.698 147.056 372.819 138.971 372.819 128.962C372.819 118.761 381.083 110.484 391.268 110.484H446.422H482.551C492.736 110.484 501 102.208 501 92.006V91.4286C500.808 89.8887 500.231 84.3068 495.619 79.6872C490.43 74.4902 483.704 74.2977 482.551 74.2977C436.429 74.1053 390.115 73.7203 343.993 73.5278H323.238C313.053 73.5278 304.789 65.2511 304.789 55.0496C304.789 46.1955 310.939 38.8812 319.203 36.9564H342.071C352.257 36.9564 360.52 28.6797 360.52 18.4782C360.52 8.27669 352.257 0 342.071 0H330.541H245.984H208.894H170.267H112.422C102.237 0 93.9735 8.27669 93.9735 18.4782C93.9735 28.6797 102.237 36.9564 112.422 36.9564H170.267C178.338 38.8812 184.296 46.1955 184.296 54.8571C184.296 63.3263 178.723 70.4481 171.036 72.5654H163.541C153.356 72.5654 145.092 80.8421 145.092 91.0436V91.621C145.092 101.823 153.356 110.099 163.541 110.099H170.267V110.292H204.282C214.467 110.292 222.731 118.568 222.731 128.77C222.731 138.971 214.467 147.248 204.282 147.248H151.818H78.023H18.4488C8.26352 147.826 0 156.102 0 166.304C0 176.505 8.26352 184.782 18.4488 184.782H78.023H105.12C115.305 184.782 123.568 193.059 123.568 203.26C123.568 211.152 118.572 217.889 111.654 220.583H29.9793C19.794 220.583 11.5305 228.475 11.5305 238.099C11.5305 247.916 19.794 255.615 29.9793 255.615H35.7445C177.57 255.808 319.395 255.808 461.412 256Z" transform="translate(467) scale(-1 1)" fill="#D5944D"/>
</svg>
