<svg width="360" height="462" viewBox="0 0 360 462" fill="none" xmlns="http://www.w3.org/2000/svg">
<path d="M3.75384 7.50772C5.82703 7.50772 7.5077 5.82705 7.5077 3.75386C7.5077 1.68067 5.82703 0 3.75384 0C1.68065 0 0 1.68067 0 3.75386C0 5.82705 1.68065 7.50772 3.75384 7.50772Z" transform="translate(173.615 208.456) rotate(90)" fill="#E4E9F7"/>
<path d="M2.58077 5.16157C4.00609 5.16157 5.16154 4.0061 5.16154 2.58078C5.16154 1.15546 4.00609 0 2.58077 0C1.15545 0 0 1.15546 0 2.58078C0 4.0061 1.15545 5.16157 2.58077 5.16157Z" transform="translate(279.779 76.4846) rotate(90)" fill="#E4E9F7"/>
<path d="M2.58077 5.16157C4.00609 5.16157 5.16154 4.0061 5.16154 2.58078C5.16154 1.15546 4.00609 0 2.58077 0C1.15545 0 0 1.15546 0 2.58078C0 4.0061 1.15545 5.16157 2.58077 5.16157Z" transform="translate(72.1442 74.1389) rotate(90)" fill="#E4E9F7"/>
<path d="M2.58075 5.16157C4.00607 5.16157 5.16153 4.0061 5.16153 2.58078C5.16153 1.15546 4.00607 0 2.58075 0C1.15543 0 0 1.15546 0 2.58078C0 4.0061 1.15543 5.16157 2.58075 5.16157Z" transform="translate(257.49 353.331) rotate(90)" fill="#E4E9F7"/>
<path d="M2.58075 5.16157C4.00607 5.16157 5.16153 4.0061 5.16153 2.58078C5.16153 1.15546 4.00607 0 2.58075 0C1.15543 0 0 1.15546 0 2.58078C0 4.0061 1.15543 5.16157 2.58075 5.16157Z" transform="translate(124.932 428.408) rotate(90)" fill="#E4E9F7"/>
<path d="M2.58075 5.16157C4.00607 5.16157 5.16153 4.0061 5.16153 2.58078C5.16153 1.15546 4.00607 0 2.58075 0C1.15543 0 0 1.15546 0 2.58078C0 4.0061 1.15543 5.16157 2.58075 5.16157Z" transform="translate(58.0674 335.734) rotate(90)" fill="#E4E9F7"/>
<path d="M2.58077 5.16157C4.00608 5.16157 5.16155 4.0061 5.16155 2.58078C5.16155 1.15546 4.00608 0 2.58077 0C1.15545 0 0 1.15546 0 2.58078C0 4.0061 1.15545 5.16157 2.58077 5.16157Z" transform="translate(279.779 226.639) rotate(90)" fill="#E4E9F7"/>
<path d="M1.29037 2.58078C2.00303 2.58078 2.58077 2.00309 2.58077 1.29043C2.58077 0.577768 2.00303 0 1.29037 0C0.577714 0 0 0.577768 0 1.29043C0 2.00309 0.577714 2.58078 1.29037 2.58078Z" transform="translate(96.4268 183.938) rotate(90)" fill="#E4E9F7"/>
<path d="M3.75384 7.50765C5.82703 7.50765 7.50769 5.82698 7.50769 3.75379C7.50769 1.6806 5.82703 0 3.75384 0C1.68065 0 0 1.6806 0 3.75379C0 5.82698 1.68065 7.50765 3.75384 7.50765Z" transform="translate(365.531 140.065) rotate(90)" fill="#EDB455"/>
<path d="M3.75382 7.50772C5.82702 7.50772 7.50769 5.82705 7.50769 3.75386C7.50769 1.68067 5.82702 0 3.75382 0C1.68063 0 0 1.68067 0 3.75386C0 5.82705 1.68063 7.50772 3.75382 7.50772Z" transform="translate(343.711 431.223) rotate(90)" fill="#EDB455"/>
<path d="M3.75382 7.50772C5.82702 7.50772 7.50769 5.82705 7.50769 3.75386C7.50769 1.68067 5.82702 0 3.75382 0C1.68063 0 0 1.68067 0 3.75386C0 5.82705 1.68063 7.50772 3.75382 7.50772Z" transform="translate(50.4424 457.031) rotate(90)" fill="#EDB455"/>
<path d="M1.29039 2.58078C2.00304 2.58078 2.58077 2.00309 2.58077 1.29043C2.58077 0.577768 2.00304 0 1.29039 0C0.577725 0 0 0.577768 0 1.29043C0 2.00309 0.577725 2.58078 1.29039 2.58078Z" transform="translate(97.6 34.9575) rotate(90)" fill="#EDB455"/>
<path d="M1.29039 2.58078C2.00305 2.58078 2.58077 2.00309 2.58077 1.29043C2.58077 0.577768 2.00305 0 1.29039 0C0.577727 0 0 0.577768 0 1.29043C0 2.00309 0.577727 2.58078 1.29039 2.58078Z" transform="translate(197.312 72.4961) rotate(90)" fill="#EDB455"/>
<path d="M1.29039 2.58078C2.00304 2.58078 2.58077 2.00309 2.58077 1.29043C2.58077 0.577768 2.00304 0 1.29039 0C0.577725 0 0 0.577768 0 1.29043C0 2.00309 0.577725 2.58078 1.29039 2.58078Z" transform="translate(315.792 30.2651) rotate(90)" fill="#EDB455"/>
<path d="M1.29037 2.58078C2.00303 2.58078 2.58077 2.00309 2.58077 1.29043C2.58077 0.577768 2.00303 0 1.29037 0C0.577714 0 0 0.577768 0 1.29043C0 2.00309 0.577714 2.58078 1.29037 2.58078Z" transform="translate(350.985 274.265) rotate(90)" fill="#EDB455"/>
<path d="M2.58077 5.16157C4.00608 5.16157 5.16155 4.0061 5.16155 2.58078C5.16155 1.15546 4.00608 0 2.58077 0C1.15545 0 0 1.15546 0 2.58078C0 4.0061 1.15545 5.16157 2.58077 5.16157Z" transform="translate(43.9905 240.716) rotate(90)" fill="#E4E9F7"/>
<path d="M3.75386 7.50765C5.82705 7.50765 7.50769 5.82698 7.50769 3.75379C7.50769 1.6806 5.82705 0 3.75386 0C1.68067 0 0 1.6806 0 3.75379C0 5.82698 1.68067 7.50765 3.75386 7.50765Z" transform="translate(154.377 310.161) rotate(90)" fill="#EDB455"/>
<path d="M1.29039 2.58078C2.00305 2.58078 2.58078 2.00309 2.58078 1.29043C2.58078 0.577768 2.00305 0 1.29039 0C0.577732 0 0 0.577768 0 1.29043C0 2.00309 0.577732 2.58078 1.29039 2.58078Z" transform="translate(175.023 410.342) rotate(90)" fill="#EDB455"/>
<path d="M3.75385 7.50772C5.82704 7.50772 7.50769 5.82705 7.50769 3.75386C7.50769 1.68067 5.82704 0 3.75385 0C1.68066 0 0 1.68067 0 3.75386C0 5.82705 1.68066 7.50772 3.75385 7.50772Z" transform="translate(72.5077 146) rotate(90)" fill="#EDB455"/>
<path d="M2.58077 5.16157C4.00608 5.16157 5.16155 4.0061 5.16155 2.58078C5.16155 1.15546 4.00608 0 2.58077 0C1.15545 0 0 1.15546 0 2.58078C0 4.0061 1.15545 5.16157 2.58077 5.16157Z" transform="translate(19.3558 184.408) rotate(90)" fill="#E4E9F7"/>
<path d="M2.58075 5.16157C4.00607 5.16157 5.16153 4.0061 5.16153 2.58078C5.16153 1.15546 4.00607 0 2.58075 0C1.15543 0 0 1.15546 0 2.58078C0 4.0061 1.15543 5.16157 2.58075 5.16157Z" transform="translate(285.644 301.716) rotate(90)" fill="#E4E9F7"/>
<path d="M1.29037 2.58078C2.00303 2.58078 2.58077 2.00309 2.58077 1.29043C2.58077 0.577768 2.00303 0 1.29037 0C0.577714 0 0 0.577768 0 1.29043C0 2.00309 0.577714 2.58078 1.29037 2.58078Z" transform="translate(238.369 163.996) rotate(90)" fill="#EDB455"/>
<path d="M1.29039 2.58078C2.00304 2.58078 2.58077 2.00309 2.58077 1.29043C2.58077 0.577768 2.00304 0 1.29039 0C0.577725 0 0 0.577768 0 1.29043C0 2.00309 0.577725 2.58078 1.29039 2.58078Z" transform="translate(189.1 24.3997) rotate(90)" fill="#EDB455"/>
<path d="M1.29038 2.58078C2.00304 2.58078 2.58077 2.00309 2.58077 1.29043C2.58077 0.577768 2.00304 0 1.29038 0C0.577723 0 0 0.577768 0 1.29043C0 2.00309 0.577723 2.58078 1.29038 2.58078Z" transform="translate(22.5229 124.111) rotate(90)" fill="#EDB455"/>
<path d="M1.29039 2.58078C2.00305 2.58078 2.58078 2.00309 2.58078 1.29043C2.58078 0.577768 2.00305 0 1.29039 0C0.577732 0 0 0.577768 0 1.29043C0 2.00309 0.577732 2.58078 1.29039 2.58078Z" transform="translate(10.7922 386.881) rotate(90)" fill="#EDB455"/>
<path d="M1.29039 2.58078C2.00305 2.58078 2.58078 2.00309 2.58078 1.29043C2.58078 0.577768 2.00305 0 1.29039 0C0.577732 0 0 0.577768 0 1.29043C0 2.00309 0.577732 2.58078 1.29039 2.58078Z" transform="translate(205.523 315.323) rotate(90)" fill="#EDB455"/>
<path d="M1.29039 2.58078C2.00305 2.58078 2.58078 2.00309 2.58078 1.29043C2.58078 0.577768 2.00305 0 1.29039 0C0.577732 0 0 0.577768 0 1.29043C0 2.00309 0.577732 2.58078 1.29039 2.58078Z" transform="translate(252.446 434.977) rotate(90)" fill="#EDB455"/>
<path d="M1.29039 2.58071C2.00305 2.58071 2.58078 2.00302 2.58078 1.29036C2.58078 0.577696 2.00305 0 1.29039 0C0.577732 0 0 0.577696 0 1.29036C0 2.00302 0.577732 2.58071 1.29039 2.58071Z" transform="translate(362.011 390.635) rotate(90)" fill="#E4E9F7"/>
<path d="M1.29039 2.58071C2.00305 2.58071 2.58077 2.00302 2.58077 1.29036C2.58077 0.577696 2.00305 0 1.29039 0C0.577732 0 0 0.577696 0 1.29036C0 2.00302 0.577732 2.58071 1.29039 2.58071Z" transform="translate(322.127 158.366) rotate(90)" fill="#E4E9F7"/>
<path d="M1.29039 2.58071C2.00305 2.58071 2.58077 2.00302 2.58077 1.29036C2.58077 0.577696 2.00305 0 1.29039 0C0.577732 0 0 0.577696 0 1.29036C0 2.00302 0.577732 2.58071 1.29039 2.58071Z" transform="translate(121.531 238.135) rotate(90)" fill="#E4E9F7"/>
<path d="M1.29038 2.58071C2.00304 2.58071 2.58077 2.00302 2.58077 1.29036C2.58077 0.577696 2.00304 0 1.29038 0C0.577725 0 0 0.577696 0 1.29036C0 2.00302 0.577725 2.58071 1.29038 2.58071Z" transform="translate(247.05 3.51929) rotate(90)" fill="#E4E9F7"/>
<path d="M1.29039 2.58071C2.00305 2.58071 2.58078 2.00302 2.58078 1.29036C2.58078 0.577696 2.00305 0 1.29039 0C0.577732 0 0 0.577696 0 1.29036C0 2.00302 0.577732 2.58071 1.29039 2.58071Z" transform="translate(109.8 357.788) rotate(90)" fill="#E4E9F7"/>
<path d="M1.29039 2.58071C2.00305 2.58071 2.58077 2.00302 2.58077 1.29036C2.58077 0.577696 2.00305 0 1.29039 0C0.577732 0 0 0.577696 0 1.29036C0 2.00302 0.577732 2.58071 1.29039 2.58071Z" transform="translate(202.473 253.385) rotate(90)" fill="#E4E9F7"/>
<path d="M1.29039 2.58071C2.00305 2.58071 2.58078 2.00302 2.58078 1.29036C2.58078 0.577696 2.00305 0 1.29039 0C0.577732 0 0 0.577696 0 1.29036C0 2.00302 0.577732 2.58071 1.29039 2.58071Z" transform="translate(205.992 366) rotate(90)" fill="#E4E9F7"/>
<path d="M1.29039 2.58071C2.00305 2.58071 2.58077 2.00302 2.58077 1.29036C2.58077 0.577696 2.00305 0 1.29039 0C0.577732 0 0 0.577696 0 1.29036C0 2.00302 0.577732 2.58071 1.29039 2.58071Z" transform="translate(46.4539 289.75) rotate(90)" fill="#E4E9F7"/>
<path d="M1.29038 2.58071C2.00304 2.58071 2.58077 2.00302 2.58077 1.29036C2.58077 0.577696 2.00304 0 1.29038 0C0.577723 0 0 0.577696 0 1.29036C0 2.00302 0.577723 2.58071 1.29038 2.58071Z" transform="translate(225.935 119.654) rotate(90)" fill="#E4E9F7"/>
<path d="M1.29038 2.58071C2.00304 2.58071 2.58077 2.00302 2.58077 1.29036C2.58077 0.577696 2.00304 0 1.29038 0C0.577723 0 0 0.577696 0 1.29036C0 2.00302 0.577723 2.58071 1.29038 2.58071Z" transform="translate(148.511 119.654) rotate(90)" fill="#E4E9F7"/>
<path d="M1.29038 2.58071C2.00304 2.58071 2.58077 2.00302 2.58077 1.29036C2.58077 0.577696 2.00304 0 1.29038 0C0.577723 0 0 0.577696 0 1.29036C0 2.00302 0.577723 2.58071 1.29038 2.58071Z" transform="translate(148.511 44.5767) rotate(90)" fill="#E4E9F7"/>
<path d="M1.29037 2.58078C2.00303 2.58078 2.58077 2.00309 2.58077 1.29043C2.58077 0.577768 2.00303 0 1.29037 0C0.577714 0 0 0.577768 0 1.29043C0 2.00309 0.577714 2.58078 1.29037 2.58078Z" transform="translate(90.5615 250.804) rotate(90)" fill="#EDB455"/>
<path d="M1.29039 2.58078C2.00304 2.58078 2.58077 2.00309 2.58077 1.29043C2.58077 0.577768 2.00304 0 1.29039 0C0.577725 0 0 0.577768 0 1.29043C0 2.00309 0.577725 2.58078 1.29039 2.58078Z" transform="translate(17.8307 20.8804) rotate(90)" fill="#EDB455"/>
<path d="M1.29039 2.58078C2.00305 2.58078 2.58077 2.00309 2.58077 1.29043C2.58077 0.577768 2.00305 0 1.29039 0C0.577727 0 0 0.577768 0 1.29043C0 2.00309 0.577727 2.58078 1.29039 2.58078Z" transform="translate(40.1194 64.2839) rotate(90)" fill="#EDB455"/>
<path d="M1.29039 2.58078C2.00305 2.58078 2.58078 2.00309 2.58078 1.29043C2.58078 0.577768 2.00305 0 1.29039 0C0.577732 0 0 0.577768 0 1.29043C0 2.00309 0.577732 2.58078 1.29039 2.58078Z" transform="translate(67.1 416.208) rotate(90)" fill="#EDB455"/>
</svg>
