<svg width="1440" height="810" viewBox="0 0 1440 810" fill="none" xmlns="http://www.w3.org/2000/svg">
<mask id="mask0" mask-type="alpha" maskUnits="userSpaceOnUse" x="0" y="0" width="1440" height="810">
<rect width="1440" height="810" fill="#C4C4C4"/>
</mask>
<g mask="url(#mask0)">
<rect width="1440" height="1725" transform="translate(0 1)" fill="#1D2646"/>
<path d="M3.75385 7.50769C5.82704 7.50769 7.50769 5.82703 7.50769 3.75384C7.50769 1.68065 5.82704 0 3.75385 0C1.68066 0 0 1.68065 0 3.75384C0 5.82703 1.68066 7.50769 3.75385 7.50769Z" transform="translate(903.269 67.5137) rotate(90)" fill="#E4E9F7"/>
<path d="M2.58077 5.16154C4.00608 5.16154 5.16153 4.00609 5.16153 2.58077C5.16153 1.15546 4.00608 0 2.58077 0C1.15545 0 0 1.15546 0 2.58077C0 4.00609 1.15545 5.16154 2.58077 5.16154Z" transform="translate(849.19 206.406) rotate(90)" fill="#E4E9F7"/>
<path d="M2.58078 5.16154C4.0061 5.16154 5.16153 4.00609 5.16153 2.58077C5.16153 1.15545 4.0061 0 2.58078 0C1.15546 0 0 1.15545 0 2.58077C0 4.00609 1.15546 5.16154 2.58078 5.16154Z" transform="translate(943.975 331.808) rotate(90)" fill="#E4E9F7"/>
<path d="M2.58077 5.16153C4.00608 5.16153 5.16153 4.0061 5.16153 2.58078C5.16153 1.15546 4.00608 0 2.58077 0C1.15545 0 0 1.15546 0 2.58078C0 4.0061 1.15545 5.16153 2.58077 5.16153Z" transform="translate(667.481 91.6787) rotate(90)" fill="#E4E9F7"/>
<path d="M3.75384 7.50769C5.82703 7.50769 7.5077 5.82703 7.5077 3.75384C7.5077 1.68065 5.82703 0 3.75384 0C1.68065 0 0 1.68065 0 3.75384C0 5.82703 1.68065 7.50769 3.75384 7.50769Z" transform="translate(781.269 289.225) rotate(90)" fill="#E4E9F7"/>
<path d="M3.75382 7.50769C5.82702 7.50769 7.50769 5.82704 7.50769 3.75385C7.50769 1.68066 5.82702 0 3.75382 0C1.68063 0 0 1.68066 0 3.75385C0 5.82704 1.68063 7.50769 3.75382 7.50769Z" transform="translate(919.34 515.629) rotate(90)" fill="#E4E9F7"/>
<path d="M3.75384 7.50769C5.82703 7.50769 7.5077 5.82704 7.5077 3.75385C7.5077 1.68066 5.82703 0 3.75384 0C1.68065 0 0 1.68066 0 3.75385C0 5.82704 1.68065 7.50769 3.75384 7.50769Z" transform="translate(926.731 245.821) rotate(90)" fill="#E4E9F7"/>
<path d="M3.75382 7.50769C5.82702 7.50769 7.50769 5.82705 7.50769 3.75386C7.50769 1.68067 5.82702 0 3.75382 0C1.68063 0 0 1.68067 0 3.75386C0 5.82705 1.68063 7.50769 3.75382 7.50769Z" transform="translate(611.173 472.226) rotate(90)" fill="#E4E9F7"/>
<path d="M3.75382 7.50769C5.82702 7.50769 7.50769 5.82705 7.50769 3.75386C7.50769 1.68067 5.82702 0 3.75382 0C1.68063 0 0 1.68067 0 3.75386C0 5.82705 1.68063 7.50769 3.75382 7.50769Z" transform="translate(402.365 333.685) rotate(90)" fill="#E4E9F7"/>
<path d="M3.75384 7.50772C5.82703 7.50772 7.5077 5.82705 7.5077 3.75386C7.5077 1.68067 5.82703 0 3.75384 0C1.68065 0 0 1.68067 0 3.75386C0 5.82705 1.68065 7.50772 3.75384 7.50772Z" transform="translate(173.615 209.456) rotate(90)" fill="#E4E9F7"/>
<path d="M3.75384 7.50769C5.82703 7.50769 7.5077 5.82705 7.5077 3.75386C7.5077 1.68067 5.82703 0 3.75384 0C1.68065 0 0 1.68067 0 3.75386C0 5.82705 1.68065 7.50769 3.75384 7.50769Z" transform="translate(465.712 195.379) rotate(90)" fill="#E4E9F7"/>
<path d="M3.75382 7.50769C5.82702 7.50769 7.50769 5.82703 7.50769 3.75384C7.50769 1.68065 5.82702 0 3.75382 0C1.68063 0 0 1.68065 0 3.75384C0 5.82703 1.68063 7.50769 3.75382 7.50769Z" transform="translate(788.542 591.292) rotate(90)" fill="#E4E9F7"/>
<path d="M2.58078 5.16157C4.0061 5.16157 5.16153 4.0061 5.16153 2.58078C5.16153 1.15546 4.0061 0 2.58078 0C1.15546 0 0 1.15546 0 2.58078C0 4.0061 1.15546 5.16157 2.58078 5.16157Z" transform="translate(134.904 535.923) rotate(90)" fill="#E4E9F7"/>
<path d="M2.58075 5.16157C4.00607 5.16157 5.16153 4.0061 5.16153 2.58078C5.16153 1.15546 4.00607 0 2.58075 0C1.15543 0 0 1.15546 0 2.58078C0 4.0061 1.15543 5.16157 2.58075 5.16157Z" transform="translate(314.971 546.715) rotate(90)" fill="#E4E9F7"/>
<path d="M2.58077 5.16157C4.00609 5.16157 5.16154 4.0061 5.16154 2.58078C5.16154 1.15546 4.00609 0 2.58077 0C1.15545 0 0 1.15546 0 2.58078C0 4.0061 1.15545 5.16157 2.58077 5.16157Z" transform="translate(279.779 77.4844) rotate(90)" fill="#E4E9F7"/>
<path d="M2.58077 5.16153C4.00608 5.16153 5.16155 4.0061 5.16155 2.58078C5.16155 1.15546 4.00608 0 2.58077 0C1.15545 0 0 1.15546 0 2.58078C0 4.0061 1.15545 5.16153 2.58077 5.16153Z" transform="translate(638.74 260.485) rotate(90)" fill="#E4E9F7"/>
<path d="M2.58075 5.16154C4.00607 5.16154 5.16153 4.00609 5.16153 2.58077C5.16153 1.15545 4.00607 0 2.58075 0C1.15543 0 0 1.15545 0 2.58077C0 4.00609 1.15543 5.16154 2.58075 5.16154Z" transform="translate(866.317 441.139) rotate(90)" fill="#E4E9F7"/>
<path d="M2.58077 5.16157C4.00609 5.16157 5.16154 4.0061 5.16154 2.58078C5.16154 1.15546 4.00609 0 2.58077 0C1.15545 0 0 1.15546 0 2.58078C0 4.0061 1.15545 5.16157 2.58077 5.16157Z" transform="translate(72.1442 75.1387) rotate(90)" fill="#E4E9F7"/>
<path d="M2.58075 5.16157C4.00607 5.16157 5.16153 4.0061 5.16153 2.58078C5.16153 1.15546 4.00607 0 2.58075 0C1.15543 0 0 1.15546 0 2.58078C0 4.0061 1.15543 5.16157 2.58075 5.16157Z" transform="translate(257.49 354.331) rotate(90)" fill="#E4E9F7"/>
<path d="M2.58075 5.16157C4.00607 5.16157 5.16153 4.0061 5.16153 2.58078C5.16153 1.15546 4.00607 0 2.58075 0C1.15543 0 0 1.15546 0 2.58078C0 4.0061 1.15543 5.16157 2.58075 5.16157Z" transform="translate(124.932 429.408) rotate(90)" fill="#E4E9F7"/>
<path d="M2.58075 5.16157C4.00607 5.16157 5.16153 4.0061 5.16153 2.58078C5.16153 1.15546 4.00607 0 2.58075 0C1.15543 0 0 1.15546 0 2.58078C0 4.0061 1.15543 5.16157 2.58075 5.16157Z" transform="translate(256.317 495.101) rotate(90)" fill="#E4E9F7"/>
<path d="M2.58075 5.16153C4.00607 5.16153 5.16153 4.0061 5.16153 2.58078C5.16153 1.15546 4.00607 0 2.58075 0C1.15543 0 0 1.15546 0 2.58078C0 4.0061 1.15543 5.16153 2.58075 5.16153Z" transform="translate(463.952 522.081) rotate(90)" fill="#E4E9F7"/>
<path d="M2.58075 5.16153C4.00607 5.16153 5.16153 4.0061 5.16153 2.58078C5.16153 1.15546 4.00607 0 2.58075 0C1.15543 0 0 1.15546 0 2.58078C0 4.0061 1.15543 5.16153 2.58075 5.16153Z" transform="translate(657.51 561.965) rotate(90)" fill="#E4E9F7"/>
<path d="M2.58075 5.16153C4.00607 5.16153 5.16153 4.0061 5.16153 2.58078C5.16153 1.15546 4.00607 0 2.58075 0C1.15543 0 0 1.15546 0 2.58078C0 4.0061 1.15543 5.16153 2.58075 5.16153Z" transform="translate(589.471 368.408) rotate(90)" fill="#E4E9F7"/>
<path d="M2.58077 5.16153C4.00609 5.16153 5.16154 4.0061 5.16154 2.58078C5.16154 1.15546 4.00609 0 2.58077 0C1.15545 0 0 1.15546 0 2.58078C0 4.0061 1.15545 5.16153 2.58077 5.16153Z" transform="translate(596.51 126.754) rotate(90)" fill="#E4E9F7"/>
<path d="M2.58077 5.16153C4.00609 5.16153 5.16154 4.0061 5.16154 2.58078C5.16154 1.15546 4.00609 0 2.58077 0C1.15545 0 0 1.15546 0 2.58078C0 4.0061 1.15545 5.16153 2.58077 5.16153Z" transform="translate(429.933 41.1196) rotate(90)" fill="#E4E9F7"/>
<path d="M2.58075 5.16157C4.00607 5.16157 5.16153 4.0061 5.16153 2.58078C5.16153 1.15546 4.00607 0 2.58075 0C1.15543 0 0 1.15546 0 2.58078C0 4.0061 1.15543 5.16157 2.58075 5.16157Z" transform="translate(58.0674 336.734) rotate(90)" fill="#E4E9F7"/>
<path d="M2.58077 5.16157C4.00608 5.16157 5.16155 4.0061 5.16155 2.58078C5.16155 1.15546 4.00608 0 2.58077 0C1.15545 0 0 1.15546 0 2.58078C0 4.0061 1.15545 5.16157 2.58077 5.16157Z" transform="translate(279.779 227.639) rotate(90)" fill="#E4E9F7"/>
<path d="M2.58078 5.16153C4.0061 5.16153 5.1615 4.0061 5.1615 2.58078C5.1615 1.15546 4.0061 0 2.58078 0C1.15546 0 0 1.15546 0 2.58078C0 4.0061 1.15546 5.16153 2.58078 5.16153Z" transform="translate(400.606 599.504) rotate(90)" fill="#E4E9F7"/>
<path d="M1.29037 2.58078C2.00303 2.58078 2.58077 2.00309 2.58077 1.29043C2.58077 0.577768 2.00303 0 1.29037 0C0.577714 0 0 0.577768 0 1.29043C0 2.00309 0.577714 2.58078 1.29037 2.58078Z" transform="translate(96.4268 184.938) rotate(90)" fill="#E4E9F7"/>
<path d="M1.29039 2.58077C2.00305 2.58077 2.58078 2.00303 2.58078 1.29037C2.58078 0.577714 2.00305 0 1.29039 0C0.577732 0 0 0.577714 0 1.29037C0 2.00303 0.577732 2.58077 1.29039 2.58077Z" transform="translate(731.062 446.535) rotate(90)" fill="#E4E9F7"/>
<path d="M1.29038 2.58077C2.00304 2.58077 2.58077 2.00303 2.58077 1.29037C2.58077 0.577714 2.00304 0 1.29038 0C0.577723 0 0 0.577714 0 1.29037C0 2.00303 0.577723 2.58077 1.29038 2.58077Z" transform="translate(808.485 142.708) rotate(90)" fill="#E4E9F7"/>
<path d="M1.29043 2.58077C2.00309 2.58077 2.58078 2.00305 2.58078 1.29039C2.58078 0.577728 2.00309 0 1.29043 0C0.577768 0 0 0.577728 0 1.29039C0 2.00305 0.577768 2.58077 1.29043 2.58077Z" transform="translate(938.696 611.938) rotate(90)" fill="#E4E9F7"/>
<path d="M1.29043 2.58078C2.00309 2.58078 2.58078 2.00305 2.58078 1.29039C2.58078 0.577732 2.00309 0 1.29043 0C0.577768 0 0 0.577732 0 1.29039C0 2.00305 0.577768 2.58078 1.29043 2.58078Z" transform="translate(571.523 608.419) rotate(90)" fill="#E4E9F7"/>
<path d="M1.29043 2.58078C2.00309 2.58078 2.58078 2.00309 2.58078 1.29043C2.58078 0.577768 2.00309 0 1.29043 0C0.577768 0 0 0.577768 0 1.29043C0 2.00309 0.577768 2.58078 1.29043 2.58078Z" transform="translate(295.85 665.899) rotate(90)" fill="#E4E9F7"/>
<path d="M1.29039 2.58071C2.00305 2.58071 2.58078 2.00302 2.58078 1.29036C2.58078 0.577696 2.00305 0 1.29039 0C0.577732 0 0 0.577696 0 1.29036C0 2.00302 0.577732 2.58071 1.29039 2.58071Z" transform="translate(18.3 573.462) rotate(90)" fill="#E4E9F7"/>
<path d="M1.29039 2.58077C2.00304 2.58077 2.58077 2.00303 2.58077 1.29037C2.58077 0.577714 2.00304 0 1.29039 0C0.577725 0 0 0.577714 0 1.29037C0 2.00303 0.577725 2.58077 1.29039 2.58077Z" transform="translate(741.619 21.8804) rotate(90)" fill="#E4E9F7"/>
<path d="M1.29039 2.58078C2.00305 2.58078 2.58078 2.00305 2.58078 1.29039C2.58078 0.577732 2.00305 0 1.29039 0C0.577732 0 0 0.577732 0 1.29039C0 2.00305 0.577732 2.58078 1.29039 2.58078Z" transform="translate(537.504 457.092) rotate(90)" fill="#E4E9F7"/>
<path d="M3.75382 7.50769C5.82702 7.50769 7.50769 5.82705 7.50769 3.75386C7.50769 1.68067 5.82702 0 3.75382 0C1.68063 0 0 1.68067 0 3.75386C0 5.82705 1.68063 7.50769 3.75382 7.50769Z" transform="translate(552.519 303.185) rotate(90)" fill="#EDB455"/>
<path d="M3.75384 7.50765C5.82703 7.50765 7.50769 5.82698 7.50769 3.75379C7.50769 1.6806 5.82703 0 3.75384 0C1.68065 0 0 1.6806 0 3.75379C0 5.82698 1.68065 7.50765 3.75384 7.50765Z" transform="translate(365.531 141.065) rotate(90)" fill="#EDB455"/>
<path d="M3.75382 7.50769C5.82702 7.50769 7.50769 5.82705 7.50769 3.75386C7.50769 1.68067 5.82702 0 3.75382 0C1.68063 0 0 1.68067 0 3.75386C0 5.82705 1.68063 7.50769 3.75382 7.50769Z" transform="translate(559.558 558.916) rotate(90)" fill="#EDB455"/>
<path d="M3.75382 7.50772C5.82702 7.50772 7.50769 5.82705 7.50769 3.75386C7.50769 1.68067 5.82702 0 3.75382 0C1.68063 0 0 1.68067 0 3.75386C0 5.82705 1.68063 7.50772 3.75382 7.50772Z" transform="translate(343.711 432.223) rotate(90)" fill="#EDB455"/>
<path d="M3.75382 7.50772C5.82702 7.50772 7.50769 5.82705 7.50769 3.75386C7.50769 1.68067 5.82702 0 3.75382 0C1.68063 0 0 1.68067 0 3.75386C0 5.82705 1.68063 7.50772 3.75382 7.50772Z" transform="translate(50.4424 458.031) rotate(90)" fill="#EDB455"/>
<path d="M3.75384 7.50769C5.82703 7.50769 7.50769 5.82703 7.50769 3.75384C7.50769 1.68065 5.82703 0 3.75384 0C1.68065 0 0 1.68065 0 3.75384C0 5.82703 1.68065 7.50769 3.75384 7.50769Z" transform="translate(729.654 182.358) rotate(90)" fill="#EDB455"/>
<path d="M3.75382 7.50769C5.82702 7.50769 7.50769 5.82704 7.50769 3.75385C7.50769 1.68066 5.82702 0 3.75382 0C1.68063 0 0 1.68066 0 3.75385C0 5.82704 1.68063 7.50769 3.75382 7.50769Z" transform="translate(938.462 365.358) rotate(90)" fill="#EDB455"/>
<path d="M3.75384 7.50769C5.82704 7.50769 7.50769 5.82703 7.50769 3.75384C7.50769 1.68065 5.82704 0 3.75384 0C1.68065 0 0 1.68065 0 3.75384C0 5.82703 1.68065 7.50769 3.75384 7.50769Z" transform="translate(883.327 28.6846) rotate(90)" fill="#EDB455"/>
<path d="M1.29039 2.58077C2.00305 2.58077 2.58078 2.00303 2.58078 1.29037C2.58078 0.577714 2.00305 0 1.29039 0C0.577732 0 0 0.577714 0 1.29037C0 2.00303 0.577732 2.58077 1.29039 2.58077Z" transform="translate(714.638 362.073) rotate(90)" fill="#EDB455"/>
<path d="M1.29043 2.58077C2.00309 2.58077 2.58078 2.00304 2.58078 1.29038C2.58078 0.577723 2.00309 0 1.29043 0C0.577768 0 0 0.577723 0 1.29038C0 2.00304 0.577768 2.58077 1.29043 2.58077Z" transform="translate(875.35 623.669) rotate(90)" fill="#EDB455"/>
<path d="M1.29039 2.58078C2.00305 2.58078 2.58078 2.00305 2.58078 1.29039C2.58078 0.577732 2.00305 0 1.29039 0C0.577732 0 0 0.577732 0 1.29039C0 2.00305 0.577732 2.58078 1.29039 2.58078Z" transform="translate(462.427 447.708) rotate(90)" fill="#EDB455"/>
<path d="M1.29043 2.58078C2.00309 2.58078 2.58078 2.00305 2.58078 1.29039C2.58078 0.577732 2.00309 0 1.29043 0C0.577768 0 0 0.577732 0 1.29039C0 2.00305 0.577768 2.58078 1.29043 2.58078Z" transform="translate(478.85 634.227) rotate(90)" fill="#EDB455"/>
<path d="M1.29039 2.58078C2.00304 2.58078 2.58077 2.00309 2.58077 1.29043C2.58077 0.577768 2.00304 0 1.29039 0C0.577725 0 0 0.577768 0 1.29043C0 2.00309 0.577725 2.58078 1.29039 2.58078Z" transform="translate(97.6 35.9575) rotate(90)" fill="#EDB455"/>
<path d="M1.29039 2.58078C2.00305 2.58078 2.58077 2.00309 2.58077 1.29043C2.58077 0.577768 2.00305 0 1.29039 0C0.577727 0 0 0.577768 0 1.29043C0 2.00309 0.577727 2.58078 1.29039 2.58078Z" transform="translate(197.312 73.4961) rotate(90)" fill="#EDB455"/>
<path d="M1.29039 2.58078C2.00305 2.58078 2.58078 2.00309 2.58078 1.29043C2.58078 0.577768 2.00305 0 1.29039 0C0.577732 0 0 0.577768 0 1.29043C0 2.00309 0.577732 2.58078 1.29039 2.58078Z" transform="translate(177.369 550.938) rotate(90)" fill="#EDB455"/>
<path d="M1.29039 2.58078C2.00304 2.58078 2.58077 2.00309 2.58077 1.29043C2.58077 0.577768 2.00304 0 1.29039 0C0.577725 0 0 0.577768 0 1.29043C0 2.00309 0.577725 2.58078 1.29039 2.58078Z" transform="translate(315.792 31.2651) rotate(90)" fill="#EDB455"/>
<path d="M1.29037 2.58078C2.00303 2.58078 2.58077 2.00309 2.58077 1.29043C2.58077 0.577768 2.00303 0 1.29037 0C0.577714 0 0 0.577768 0 1.29043C0 2.00309 0.577714 2.58078 1.29037 2.58078Z" transform="translate(350.985 275.265) rotate(90)" fill="#EDB455"/>
<path d="M1.29039 2.58078C2.00304 2.58078 2.58077 2.00305 2.58077 1.29039C2.58077 0.577732 2.00304 0 1.29039 0C0.577725 0 0 0.577732 0 1.29039C0 2.00305 0.577725 2.58078 1.29039 2.58078Z" transform="translate(568.004 28.9194) rotate(90)" fill="#EDB455"/>
<path d="M1.29039 2.58077C2.00305 2.58077 2.58078 2.00304 2.58078 1.29038C2.58078 0.577723 2.00305 0 1.29039 0C0.577732 0 0 0.577723 0 1.29038C0 2.00304 0.577732 2.58077 1.29039 2.58077Z" transform="translate(858.927 319.842) rotate(90)" fill="#EDB455"/>
<path d="M1.29037 2.58077C2.00303 2.58077 2.58077 2.00304 2.58077 1.29039C2.58077 0.577725 2.00303 0 1.29037 0C0.577714 0 0 0.577725 0 1.29039C0 2.00304 0.577714 2.58077 1.29037 2.58077Z" transform="translate(945.735 157.958) rotate(90)" fill="#EDB455"/>
<path d="M1.29037 2.58078C2.00303 2.58078 2.58077 2.00305 2.58077 1.29039C2.58077 0.577732 2.00303 0 1.29037 0C0.577714 0 0 0.577732 0 1.29039C0 2.00305 0.577714 2.58078 1.29037 2.58078Z" transform="translate(487.062 159.13) rotate(90)" fill="#EDB455"/>
<path d="M1.29039 2.58077C2.00305 2.58077 2.58078 2.00303 2.58078 1.29037C2.58078 0.577714 2.00305 0 1.29039 0C0.577732 0 0 0.577714 0 1.29037C0 2.00303 0.577732 2.58077 1.29039 2.58077Z" transform="translate(799.1 491.111) rotate(90)" fill="#E4E9F7"/>
<path d="M2.58077 5.16157C4.00608 5.16157 5.16155 4.0061 5.16155 2.58078C5.16155 1.15546 4.00608 0 2.58077 0C1.15545 0 0 1.15546 0 2.58078C0 4.0061 1.15545 5.16157 2.58077 5.16157Z" transform="translate(43.9905 241.716) rotate(90)" fill="#E4E9F7"/>
<path d="M2.58075 5.16157C4.00607 5.16157 5.16153 4.0061 5.16153 2.58078C5.16153 1.15546 4.00607 0 2.58075 0C1.15543 0 0 1.15546 0 2.58078C0 4.0061 1.15543 5.16157 2.58075 5.16157Z" transform="translate(183.586 463.427) rotate(90)" fill="#E4E9F7"/>
<path d="M3.75386 7.50765C5.82705 7.50765 7.50769 5.82698 7.50769 3.75379C7.50769 1.6806 5.82705 0 3.75386 0C1.68067 0 0 1.6806 0 3.75379C0 5.82698 1.68067 7.50765 3.75386 7.50765Z" transform="translate(154.377 311.161) rotate(90)" fill="#EDB455"/>
<path d="M1.29039 2.58078C2.00305 2.58078 2.58078 2.00309 2.58078 1.29043C2.58078 0.577768 2.00305 0 1.29039 0C0.577732 0 0 0.577768 0 1.29043C0 2.00309 0.577732 2.58078 1.29039 2.58078Z" transform="translate(175.023 411.342) rotate(90)" fill="#EDB455"/>
<path d="M3.75386 7.50765C5.82705 7.50765 7.50772 5.82698 7.50772 3.75379C7.50772 1.6806 5.82705 0 3.75386 0C1.68067 0 0 1.6806 0 3.75379C0 5.82698 1.68067 7.50765 3.75386 7.50765Z" transform="translate(163.175 663.906) rotate(90)" fill="#EDB455"/>
<path d="M3.75386 7.50772C5.82705 7.50772 7.50772 5.82705 7.50772 3.75386C7.50772 1.68067 5.82705 0 3.75386 0C1.68067 0 0 1.68067 0 3.75386C0 5.82705 1.68067 7.50772 3.75386 7.50772Z" transform="translate(256.904 611.704) rotate(90)" fill="#EDB455"/>
<path d="M3.75386 7.50769C5.82705 7.50769 7.50769 5.82703 7.50769 3.75384C7.50769 1.68065 5.82705 0 3.75386 0C1.68067 0 0 1.68065 0 3.75384C0 5.82703 1.68067 7.50769 3.75386 7.50769Z" transform="translate(724.844 533.459) rotate(90)" fill="#EDB455"/>
<path d="M3.75385 7.50772C5.82704 7.50772 7.50769 5.82705 7.50769 3.75386C7.50769 1.68067 5.82704 0 3.75385 0C1.68066 0 0 1.68067 0 3.75386C0 5.82705 1.68066 7.50772 3.75385 7.50772Z" transform="translate(133.731 150.685) rotate(90)" fill="#EDB455"/>
<path d="M2.58077 5.16157C4.00608 5.16157 5.16155 4.0061 5.16155 2.58078C5.16155 1.15546 4.00608 0 2.58077 0C1.15545 0 0 1.15546 0 2.58078C0 4.0061 1.15545 5.16157 2.58077 5.16157Z" transform="translate(19.3558 185.408) rotate(90)" fill="#E4E9F7"/>
<path d="M2.58077 5.16153C4.00608 5.16153 5.16155 4.0061 5.16155 2.58078C5.16155 1.15546 4.00608 0 2.58077 0C1.15545 0 0 1.15546 0 2.58078C0 4.0061 1.15545 5.16153 2.58077 5.16153Z" transform="translate(479.202 290.985) rotate(90)" fill="#E4E9F7"/>
<path d="M2.58077 5.16154C4.00609 5.16154 5.16154 4.00609 5.16154 2.58077C5.16154 1.15545 4.00609 0 2.58077 0C1.15545 0 0 1.15545 0 2.58077C0 4.00609 1.15545 5.16154 2.58077 5.16154Z" transform="translate(840.51 20.0044) rotate(90)" fill="#E4E9F7"/>
<path d="M2.58078 5.16154C4.0061 5.16154 5.1615 4.00609 5.1615 2.58077C5.1615 1.15545 4.0061 0 2.58078 0C1.15546 0 0 1.15545 0 2.58077C0 4.00609 1.15546 5.16154 2.58078 5.16154Z" transform="translate(950.779 655.812) rotate(90)" fill="#E4E9F7"/>
<path d="M2.58075 5.16154C4.00607 5.16154 5.16153 4.00609 5.16153 2.58077C5.16153 1.15545 4.00607 0 2.58075 0C1.15543 0 0 1.15545 0 2.58077C0 4.00609 1.15543 5.16154 2.58075 5.16154Z" transform="translate(840.51 532.639) rotate(90)" fill="#E4E9F7"/>
<path d="M2.58078 5.16153C4.0061 5.16153 5.1615 4.00608 5.1615 2.58077C5.1615 1.15545 4.0061 0 2.58078 0C1.15546 0 0 1.15545 0 2.58077C0 4.00608 1.15546 5.16153 2.58078 5.16153Z" transform="translate(704.433 632.35) rotate(90)" fill="#E4E9F7"/>
<path d="M2.58078 5.16153C4.0061 5.16153 5.1615 4.0061 5.1615 2.58078C5.1615 1.15546 4.0061 0 2.58078 0C1.15546 0 0 1.15546 0 2.58078C0 4.0061 1.15546 5.16153 2.58078 5.16153Z" transform="translate(544.894 666.37) rotate(90)" fill="#E4E9F7"/>
<path d="M2.58075 5.16153C4.00607 5.16153 5.16153 4.0061 5.16153 2.58078C5.16153 1.15546 4.00607 0 2.58075 0C1.15543 0 0 1.15546 0 2.58078C0 4.0061 1.15543 5.16153 2.58075 5.16153Z" transform="translate(388.875 524.428) rotate(90)" fill="#E4E9F7"/>
<path d="M2.58075 5.16153C4.00607 5.16153 5.16153 4.0061 5.16153 2.58078C5.16153 1.15546 4.00607 0 2.58075 0C1.15543 0 0 1.15546 0 2.58078C0 4.0061 1.15543 5.16153 2.58075 5.16153Z" transform="translate(461.606 391.869) rotate(90)" fill="#E4E9F7"/>
<path d="M2.58075 5.16157C4.00607 5.16157 5.16153 4.0061 5.16153 2.58078C5.16153 1.15546 4.00607 0 2.58075 0C1.15543 0 0 1.15546 0 2.58078C0 4.0061 1.15543 5.16157 2.58075 5.16157Z" transform="translate(285.644 302.716) rotate(90)" fill="#E4E9F7"/>
<path d="M2.58077 5.16153C4.00609 5.16153 5.16154 4.0061 5.16154 2.58078C5.16154 1.15546 4.00609 0 2.58077 0C1.15545 0 0 1.15546 0 2.58078C0 4.0061 1.15545 5.16153 2.58077 5.16153Z" transform="translate(466.298 129.1) rotate(90)" fill="#E4E9F7"/>
<path d="M1.29037 2.58078C2.00303 2.58078 2.58077 2.00305 2.58077 1.29039C2.58077 0.577732 2.00303 0 1.29037 0C0.577714 0 0 0.577732 0 1.29039C0 2.00305 0.577714 2.58078 1.29037 2.58078Z" transform="translate(571.523 214.265) rotate(90)" fill="#EDB455"/>
<path d="M1.29039 2.58077C2.00305 2.58077 2.58078 2.00304 2.58078 1.29038C2.58078 0.577725 2.00305 0 1.29039 0C0.577732 0 0 0.577725 0 1.29038C0 2.00304 0.577732 2.58077 1.29039 2.58077Z" transform="translate(970.369 500.496) rotate(90)" fill="#EDB455"/>
<path d="M1.29037 2.58077C2.00303 2.58077 2.58077 2.00304 2.58077 1.29038C2.58077 0.577723 2.00303 0 1.29037 0C0.577714 0 0 0.577723 0 1.29038C0 2.00304 0.577714 2.58077 1.29037 2.58077Z" transform="translate(860.1 150.919) rotate(90)" fill="#EDB455"/>
<path d="M1.29039 2.58077C2.00305 2.58077 2.58077 2.00303 2.58077 1.29037C2.58077 0.577714 2.00305 0 1.29039 0C0.577727 0 0 0.577714 0 1.29037C0 2.00303 0.577727 2.58077 1.29039 2.58077Z" transform="translate(774.465 51.2075) rotate(90)" fill="#EDB455"/>
<path d="M1.29038 2.58077C2.00304 2.58077 2.58077 2.00303 2.58077 1.29037C2.58077 0.577714 2.00304 0 1.29038 0C0.577723 0 0 0.577714 0 1.29037C0 2.00303 0.577723 2.58077 1.29038 2.58077Z" transform="translate(716.985 108.688) rotate(90)" fill="#EDB455"/>
<path d="M1.29039 2.58078C2.00305 2.58078 2.58077 2.00305 2.58077 1.29039C2.58077 0.577732 2.00305 0 1.29039 0C0.577727 0 0 0.577732 0 1.29039C0 2.00305 0.577727 2.58078 1.29039 2.58078Z" transform="translate(487.062 46.5146) rotate(90)" fill="#EDB455"/>
<path d="M1.29038 2.58078C2.00304 2.58078 2.58077 2.00305 2.58077 1.29039C2.58077 0.577732 2.00304 0 1.29038 0C0.577723 0 0 0.577732 0 1.29039C0 2.00305 0.577723 2.58078 1.29038 2.58078Z" transform="translate(525.773 136.842) rotate(90)" fill="#EDB455"/>
<path d="M1.29037 2.58078C2.00303 2.58078 2.58077 2.00309 2.58077 1.29043C2.58077 0.577768 2.00303 0 1.29037 0C0.577714 0 0 0.577768 0 1.29043C0 2.00309 0.577714 2.58078 1.29037 2.58078Z" transform="translate(238.369 164.996) rotate(90)" fill="#EDB455"/>
<path d="M1.29039 2.58078C2.00304 2.58078 2.58077 2.00309 2.58077 1.29043C2.58077 0.577768 2.00304 0 1.29039 0C0.577725 0 0 0.577768 0 1.29043C0 2.00309 0.577725 2.58078 1.29039 2.58078Z" transform="translate(189.1 25.3999) rotate(90)" fill="#EDB455"/>
<path d="M1.29038 2.58078C2.00304 2.58078 2.58077 2.00309 2.58077 1.29043C2.58077 0.577768 2.00304 0 1.29038 0C0.577723 0 0 0.577768 0 1.29043C0 2.00309 0.577723 2.58078 1.29038 2.58078Z" transform="translate(22.5229 125.111) rotate(90)" fill="#EDB455"/>
<path d="M1.29039 2.58078C2.00305 2.58078 2.58078 2.00309 2.58078 1.29043C2.58078 0.577768 2.00305 0 1.29039 0C0.577732 0 0 0.577768 0 1.29043C0 2.00309 0.577732 2.58078 1.29039 2.58078Z" transform="translate(10.7922 387.881) rotate(90)" fill="#EDB455"/>
<path d="M1.29039 2.58078C2.00305 2.58078 2.58078 2.00309 2.58078 1.29043C2.58078 0.577768 2.00305 0 1.29039 0C0.577732 0 0 0.577768 0 1.29043C0 2.00309 0.577732 2.58078 1.29039 2.58078Z" transform="translate(205.523 316.323) rotate(90)" fill="#EDB455"/>
<path d="M1.29039 2.58078C2.00305 2.58078 2.58078 2.00309 2.58078 1.29043C2.58078 0.577768 2.00305 0 1.29039 0C0.577732 0 0 0.577768 0 1.29043C0 2.00309 0.577732 2.58078 1.29039 2.58078Z" transform="translate(252.446 435.977) rotate(90)" fill="#EDB455"/>
<path d="M1.29043 2.58078C2.00309 2.58078 2.58078 2.00309 2.58078 1.29043C2.58078 0.577768 2.00309 0 1.29043 0C0.577768 0 0 0.577768 0 1.29043C0 2.00309 0.577768 2.58078 1.29043 2.58078Z" transform="translate(95.2538 633.053) rotate(90)" fill="#EDB455"/>
<path d="M2.58078 5.16157C4.0061 5.16157 5.16157 4.0061 5.16157 2.58078C5.16157 1.15546 4.0061 0 2.58078 0C1.15546 0 0 1.15546 0 2.58078C0 4.0061 1.15546 5.16157 2.58078 5.16157Z" transform="translate(42.2308 634.461) rotate(90)" fill="#E4E9F7"/>
<path d="M3.75382 7.50772C5.82702 7.50772 7.50769 5.82705 7.50769 3.75386C7.50769 1.68067 5.82702 0 3.75382 0C1.68063 0 0 1.68067 0 3.75386C0 5.82705 1.68063 7.50772 3.75382 7.50772Z" transform="translate(91.5 569.59) rotate(90)" fill="#E4E9F7"/>
<path d="M1.29039 2.58071C2.00305 2.58071 2.58078 2.00302 2.58078 1.29036C2.58078 0.577696 2.00305 0 1.29039 0C0.577732 0 0 0.577696 0 1.29036C0 2.00302 0.577732 2.58071 1.29039 2.58071Z" transform="translate(362.011 391.635) rotate(90)" fill="#E4E9F7"/>
<path d="M1.29039 2.58078C2.00305 2.58078 2.58077 2.00305 2.58077 1.29039C2.58077 0.577732 2.00305 0 1.29039 0C0.577732 0 0 0.577732 0 1.29039C0 2.00305 0.577732 2.58078 1.29039 2.58078Z" transform="translate(388.992 226.23) rotate(90)" fill="#E4E9F7"/>
<path d="M1.29039 2.58071C2.00305 2.58071 2.58077 2.00302 2.58077 1.29036C2.58077 0.577696 2.00305 0 1.29039 0C0.577732 0 0 0.577696 0 1.29036C0 2.00302 0.577732 2.58071 1.29039 2.58071Z" transform="translate(322.127 159.366) rotate(90)" fill="#E4E9F7"/>
<path d="M1.29038 2.58078C2.00304 2.58078 2.58077 2.00305 2.58077 1.29039C2.58077 0.577732 2.00304 0 1.29038 0C0.577723 0 0 0.577732 0 1.29039C0 2.00305 0.577723 2.58078 1.29038 2.58078Z" transform="translate(630.646 49.0962) rotate(90)" fill="#E4E9F7"/>
<path d="M1.29039 2.58078C2.00305 2.58078 2.58077 2.00305 2.58077 1.29039C2.58077 0.577732 2.00305 0 1.29039 0C0.577732 0 0 0.577732 0 1.29039C0 2.00305 0.577732 2.58078 1.29039 2.58078Z" transform="translate(678.742 240.308) rotate(90)" fill="#E4E9F7"/>
<path d="M1.29039 2.58078C2.00305 2.58078 2.58078 2.00305 2.58078 1.29039C2.58078 0.577732 2.00305 0 1.29039 0C0.577732 0 0 0.577732 0 1.29039C0 2.00305 0.577732 2.58078 1.29039 2.58078Z" transform="translate(824.204 408.058) rotate(90)" fill="#E4E9F7"/>
<path d="M1.29039 2.58077C2.00305 2.58077 2.58078 2.00304 2.58078 1.29038C2.58078 0.577723 2.00305 0 1.29039 0C0.577732 0 0 0.577723 0 1.29038C0 2.00304 0.577732 2.58077 1.29039 2.58077Z" transform="translate(926.261 456.154) rotate(90)" fill="#E4E9F7"/>
<path d="M1.29036 2.58078C2.00302 2.58078 2.58078 2.00305 2.58078 1.29039C2.58078 0.577732 2.00302 0 1.29036 0C0.577696 0 0 0.577732 0 1.29039C0 2.00305 0.577696 2.58078 1.29036 2.58078Z" transform="translate(814.819 653.231) rotate(90)" fill="#E4E9F7"/>
<path d="M1.29039 2.58077C2.00305 2.58077 2.58078 2.00304 2.58078 1.29038C2.58078 0.577723 2.00305 0 1.29039 0C0.577732 0 0 0.577723 0 1.29038C0 2.00304 0.577732 2.58077 1.29039 2.58077Z" transform="translate(885.204 562.904) rotate(90)" fill="#E4E9F7"/>
<path d="M1.29039 2.58077C2.00305 2.58077 2.58077 2.00304 2.58077 1.29038C2.58077 0.577723 2.00305 0 1.29039 0C0.577732 0 0 0.577723 0 1.29038C0 2.00304 0.577732 2.58077 1.29039 2.58077Z" transform="translate(889.896 160.539) rotate(90)" fill="#E4E9F7"/>
<path d="M1.29038 2.58078C2.00304 2.58078 2.58077 2.00305 2.58077 1.29039C2.58077 0.577732 2.00304 0 1.29038 0C0.577723 0 0 0.577732 0 1.29039C0 2.00305 0.577723 2.58078 1.29038 2.58078Z" transform="translate(817.165 73.731) rotate(90)" fill="#E4E9F7"/>
<path d="M1.29039 2.58078C2.00305 2.58078 2.58078 2.00305 2.58078 1.29039C2.58078 0.577732 2.00305 0 1.29039 0C0.577732 0 0 0.577732 0 1.29039C0 2.00305 0.577732 2.58078 1.29039 2.58078Z" transform="translate(659.973 332.981) rotate(90)" fill="#E4E9F7"/>
<path d="M1.29039 2.58078C2.00305 2.58078 2.58078 2.00305 2.58078 1.29039C2.58078 0.577732 2.00305 0 1.29039 0C0.577732 0 0 0.577732 0 1.29039C0 2.00305 0.577732 2.58078 1.29039 2.58078Z" transform="translate(776.108 379.903) rotate(90)" fill="#E4E9F7"/>
<path d="M1.29039 2.58071C2.00305 2.58071 2.58077 2.00302 2.58077 1.29036C2.58077 0.577696 2.00305 0 1.29039 0C0.577732 0 0 0.577696 0 1.29036C0 2.00302 0.577732 2.58071 1.29039 2.58071Z" transform="translate(121.531 239.135) rotate(90)" fill="#E4E9F7"/>
<path d="M1.29039 2.58078C2.00305 2.58078 2.58078 2.00305 2.58078 1.29039C2.58078 0.577732 2.00305 0 1.29039 0C0.577732 0 0 0.577732 0 1.29039C0 2.00305 0.577732 2.58078 1.29039 2.58078Z" transform="translate(378.435 586.366) rotate(90)" fill="#E4E9F7"/>
<path d="M1.29039 2.58078C2.00305 2.58078 2.58078 2.00305 2.58078 1.29039C2.58078 0.577732 2.00305 0 1.29039 0C0.577732 0 0 0.577732 0 1.29039C0 2.00305 0.577732 2.58078 1.29039 2.58078Z" transform="translate(702.204 444.423) rotate(90)" fill="#E4E9F7"/>
<path d="M1.29039 2.58078C2.00305 2.58078 2.58077 2.00305 2.58077 1.29039C2.58077 0.577732 2.00305 0 1.29039 0C0.577732 0 0 0.577732 0 1.29039C0 2.00305 0.577732 2.58078 1.29039 2.58078Z" transform="translate(697.511 293.096) rotate(90)" fill="#E4E9F7"/>
<path d="M1.29039 2.58078C2.00305 2.58078 2.58077 2.00305 2.58077 1.29039C2.58077 0.577732 2.00305 0 1.29039 0C0.577732 0 0 0.577732 0 1.29039C0 2.00305 0.577732 2.58078 1.29039 2.58078Z" transform="translate(609.531 168.75) rotate(90)" fill="#E4E9F7"/>
<path d="M1.29039 2.58077C2.00305 2.58077 2.58077 2.00304 2.58077 1.29038C2.58077 0.577723 2.00305 0 1.29039 0C0.577732 0 0 0.577723 0 1.29038C0 2.00304 0.577732 2.58077 1.29039 2.58077Z" transform="translate(845.319 284.885) rotate(90)" fill="#E4E9F7"/>
<path d="M1.29039 2.58078C2.00305 2.58078 2.58077 2.00305 2.58077 1.29039C2.58077 0.577732 2.00305 0 1.29039 0C0.577732 0 0 0.577732 0 1.29039C0 2.00305 0.577732 2.58078 1.29039 2.58078Z" transform="translate(739.742 223.885) rotate(90)" fill="#E4E9F7"/>
<path d="M1.29039 2.58077C2.00305 2.58077 2.58078 2.00304 2.58078 1.29038C2.58078 0.577723 2.00305 0 1.29039 0C0.577732 0 0 0.577723 0 1.29038C0 2.00304 0.577732 2.58077 1.29039 2.58077Z" transform="translate(847.665 399.847) rotate(90)" fill="#E4E9F7"/>
<path d="M3.75385 7.50769C5.82704 7.50769 7.50769 5.82704 7.50769 3.75385C7.50769 1.68065 5.82704 0 3.75385 0C1.68066 0 0 1.68065 0 3.75385C0 5.82704 1.68066 7.50769 3.75385 7.50769Z" transform="translate(976 46.3979) rotate(90)" fill="#E4E9F7"/>
<path d="M1.29038 2.58077C2.00304 2.58077 2.58077 2.00304 2.58077 1.29039C2.58077 0.577725 2.00304 0 1.29038 0C0.577725 0 0 0.577725 0 1.29039C0 2.00304 0.577725 2.58077 1.29038 2.58077Z" transform="translate(949.723 1) rotate(90)" fill="#E4E9F7"/>
<path d="M1.29039 2.58077C2.00305 2.58077 2.58077 2.00304 2.58077 1.29038C2.58077 0.577725 2.00305 0 1.29039 0C0.577732 0 0 0.577725 0 1.29038C0 2.00304 0.577732 2.58077 1.29039 2.58077Z" transform="translate(974.358 235.615) rotate(90)" fill="#E4E9F7"/>
<path d="M1.29039 2.58077C2.00305 2.58077 2.58078 2.00304 2.58078 1.29038C2.58078 0.577725 2.00305 0 1.29039 0C0.577732 0 0 0.577725 0 1.29038C0 2.00304 0.577732 2.58077 1.29039 2.58077Z" transform="translate(975.531 490.173) rotate(90)" fill="#E4E9F7"/>
<path d="M1.29039 2.58078C2.00305 2.58078 2.58078 2.00305 2.58078 1.29039C2.58078 0.577732 2.00305 0 1.29039 0C0.577732 0 0 0.577732 0 1.29039C0 2.00305 0.577732 2.58078 1.29039 2.58078Z" transform="translate(634.165 398.673) rotate(90)" fill="#E4E9F7"/>
<path d="M1.29038 2.58071C2.00304 2.58071 2.58077 2.00302 2.58077 1.29036C2.58077 0.577696 2.00304 0 1.29038 0C0.577723 0 0 0.577696 0 1.29036C0 2.00302 0.577723 2.58071 1.29038 2.58071Z" transform="translate(363.185 87.8076) rotate(90)" fill="#E4E9F7"/>
<path d="M1.29038 2.58071C2.00304 2.58071 2.58077 2.00302 2.58077 1.29036C2.58077 0.577696 2.00304 0 1.29038 0C0.577725 0 0 0.577696 0 1.29036C0 2.00302 0.577725 2.58071 1.29038 2.58071Z" transform="translate(247.05 4.51953) rotate(90)" fill="#E4E9F7"/>
<path d="M1.29039 2.58071C2.00305 2.58071 2.58078 2.00302 2.58078 1.29036C2.58078 0.577696 2.00305 0 1.29039 0C0.577732 0 0 0.577696 0 1.29036C0 2.00302 0.577732 2.58071 1.29039 2.58071Z" transform="translate(109.8 358.789) rotate(90)" fill="#E4E9F7"/>
<path d="M1.29039 2.58071C2.00305 2.58071 2.58078 2.00302 2.58078 1.29036C2.58078 0.577696 2.00305 0 1.29039 0C0.577732 0 0 0.577696 0 1.29036C0 2.00302 0.577732 2.58071 1.29039 2.58071Z" transform="translate(216.55 561.731) rotate(90)" fill="#E4E9F7"/>
<path d="M1.29039 2.58078C2.00305 2.58078 2.58078 2.00305 2.58078 1.29039C2.58078 0.577732 2.00305 0 1.29039 0C0.577732 0 0 0.577732 0 1.29039C0 2.00305 0.577732 2.58078 1.29039 2.58078Z" transform="translate(396.031 452.634) rotate(90)" fill="#E4E9F7"/>
<path d="M1.29036 2.58078C2.00302 2.58078 2.58078 2.00305 2.58078 1.29039C2.58078 0.577732 2.00302 0 1.29036 0C0.577696 0 0 0.577732 0 1.29039C0 2.00305 0.577696 2.58078 1.29036 2.58078Z" transform="translate(435.915 627.423) rotate(90)" fill="#E4E9F7"/>
<path d="M1.29039 2.58078C2.00305 2.58078 2.58077 2.00305 2.58077 1.29039C2.58077 0.577732 2.00305 0 1.29039 0C0.577732 0 0 0.577732 0 1.29039C0 2.00305 0.577732 2.58078 1.29039 2.58078Z" transform="translate(539.146 219.192) rotate(90)" fill="#E4E9F7"/>
<path d="M1.29039 2.58078C2.00305 2.58078 2.58077 2.00305 2.58077 1.29039C2.58077 0.577732 2.00305 0 1.29039 0C0.577732 0 0 0.577732 0 1.29039C0 2.00305 0.577732 2.58078 1.29039 2.58078Z" transform="translate(682.261 166.404) rotate(90)" fill="#E4E9F7"/>
<path d="M1.29039 2.58078C2.00304 2.58078 2.58077 2.00305 2.58077 1.29039C2.58077 0.577732 2.00304 0 1.29039 0C0.577725 0 0 0.577732 0 1.29039C0 2.00305 0.577725 2.58078 1.29039 2.58078Z" transform="translate(685.781 30.3271) rotate(90)" fill="#E4E9F7"/>
<path d="M1.29038 2.58078C2.00304 2.58078 2.58077 2.00305 2.58077 1.29039C2.58077 0.577732 2.00304 0 1.29038 0C0.577723 0 0 0.577732 0 1.29039C0 2.00305 0.577723 2.58078 1.29038 2.58078Z" transform="translate(769.069 117.135) rotate(90)" fill="#E4E9F7"/>
<path d="M1.29039 2.58078C2.00305 2.58078 2.58077 2.00305 2.58077 1.29039C2.58077 0.577732 2.00305 0 1.29039 0C0.577732 0 0 0.577732 0 1.29039C0 2.00305 0.577732 2.58078 1.29039 2.58078Z" transform="translate(804.261 253.212) rotate(90)" fill="#E4E9F7"/>
<path d="M1.29039 2.58077C2.00305 2.58077 2.58078 2.00304 2.58078 1.29038C2.58078 0.577723 2.00305 0 1.29039 0C0.577732 0 0 0.577723 0 1.29038C0 2.00304 0.577732 2.58077 1.29039 2.58077Z" transform="translate(923.915 430.346) rotate(90)" fill="#E4E9F7"/>
<path d="M1.29036 2.58077C2.00302 2.58077 2.58078 2.00304 2.58078 1.29038C2.58078 0.577723 2.00302 0 1.29036 0C0.577696 0 0 0.577723 0 1.29038C0 2.00304 0.577696 2.58077 1.29036 2.58077Z" transform="translate(841.8 605.135) rotate(90)" fill="#E4E9F7"/>
<path d="M1.29039 2.58071C2.00305 2.58071 2.58077 2.00302 2.58077 1.29036C2.58077 0.577696 2.00305 0 1.29039 0C0.577732 0 0 0.577696 0 1.29036C0 2.00302 0.577732 2.58071 1.29039 2.58071Z" transform="translate(202.473 254.385) rotate(90)" fill="#E4E9F7"/>
<path d="M1.29039 2.58071C2.00305 2.58071 2.58078 2.00302 2.58078 1.29036C2.58078 0.577696 2.00305 0 1.29039 0C0.577732 0 0 0.577696 0 1.29036C0 2.00302 0.577732 2.58071 1.29039 2.58071Z" transform="translate(205.992 367) rotate(90)" fill="#E4E9F7"/>
<path d="M1.29039 2.58071C2.00305 2.58071 2.58077 2.00302 2.58077 1.29036C2.58077 0.577696 2.00305 0 1.29039 0C0.577732 0 0 0.577696 0 1.29036C0 2.00302 0.577732 2.58071 1.29039 2.58071Z" transform="translate(46.4539 290.75) rotate(90)" fill="#E4E9F7"/>
<path d="M1.29039 2.58071C2.00305 2.58071 2.58078 2.00302 2.58078 1.29036C2.58078 0.577696 2.00305 0 1.29039 0C0.577732 0 0 0.577696 0 1.29036C0 2.00302 0.577732 2.58071 1.29039 2.58071Z" transform="translate(363.185 498.385) rotate(90)" fill="#E4E9F7"/>
<path d="M1.29038 2.58071C2.00304 2.58071 2.58077 2.00302 2.58077 1.29036C2.58077 0.577696 2.00304 0 1.29038 0C0.577723 0 0 0.577696 0 1.29036C0 2.00302 0.577723 2.58071 1.29038 2.58071Z" transform="translate(225.935 120.653) rotate(90)" fill="#E4E9F7"/>
<path d="M1.29038 2.58071C2.00304 2.58071 2.58077 2.00302 2.58077 1.29036C2.58077 0.577696 2.00304 0 1.29038 0C0.577723 0 0 0.577696 0 1.29036C0 2.00302 0.577723 2.58071 1.29038 2.58071Z" transform="translate(148.511 120.653) rotate(90)" fill="#E4E9F7"/>
<path d="M1.29038 2.58071C2.00304 2.58071 2.58077 2.00302 2.58077 1.29036C2.58077 0.577696 2.00304 0 1.29038 0C0.577723 0 0 0.577696 0 1.29036C0 2.00302 0.577723 2.58071 1.29038 2.58071Z" transform="translate(148.511 45.5767) rotate(90)" fill="#E4E9F7"/>
<path d="M3.75379 7.50769C5.82698 7.50769 7.50765 5.82702 7.50765 3.75382C7.50765 1.68063 5.82698 0 3.75379 0C1.6806 0 0 1.68063 0 3.75382C0 5.82702 1.6806 7.50769 3.75379 7.50769Z" transform="translate(639.21 622.613) rotate(90)" fill="#EDB455"/>
<path d="M1.29039 2.58078C2.00305 2.58078 2.58078 2.00305 2.58078 1.29039C2.58078 0.577732 2.00305 0 1.29039 0C0.577732 0 0 0.577732 0 1.29039C0 2.00305 0.577732 2.58078 1.29039 2.58078Z" transform="translate(636.511 586.366) rotate(90)" fill="#E4E9F7"/>
<path d="M1.29039 2.58078C2.00305 2.58078 2.58078 2.00305 2.58078 1.29039C2.58078 0.577732 2.00305 0 1.29039 0C0.577732 0 0 0.577732 0 1.29039C0 2.00305 0.577732 2.58078 1.29039 2.58078Z" transform="translate(664.196 498.149) rotate(90)" fill="#EDB455"/>
<path d="M1.29043 2.58077C2.00309 2.58077 2.58078 2.00303 2.58078 1.29037C2.58078 0.577714 2.00309 0 1.29043 0C0.577768 0 0 0.577714 0 1.29037C0 2.00303 0.577768 2.58077 1.29043 2.58077Z" transform="translate(762.735 669.419) rotate(90)" fill="#EDB455"/>
<path d="M1.29039 2.58077C2.00305 2.58077 2.58078 2.00303 2.58078 1.29037C2.58078 0.577714 2.00305 0 1.29039 0C0.577732 0 0 0.577714 0 1.29037C0 2.00303 0.577732 2.58077 1.29039 2.58077Z" transform="translate(766.254 560.322) rotate(90)" fill="#EDB455"/>
<path d="M1.29039 2.58078C2.00305 2.58078 2.58078 2.00305 2.58078 1.29039C2.58078 0.577732 2.00305 0 1.29039 0C0.577732 0 0 0.577732 0 1.29039C0 2.00305 0.577732 2.58078 1.29039 2.58078Z" transform="translate(507.004 439.496) rotate(90)" fill="#EDB455"/>
<path d="M1.29037 2.58078C2.00303 2.58078 2.58077 2.00309 2.58077 1.29043C2.58077 0.577768 2.00303 0 1.29037 0C0.577714 0 0 0.577768 0 1.29043C0 2.00309 0.577714 2.58078 1.29037 2.58078Z" transform="translate(90.5615 251.804) rotate(90)" fill="#EDB455"/>
<path d="M1.29039 2.58078C2.00304 2.58078 2.58077 2.00309 2.58077 1.29043C2.58077 0.577768 2.00304 0 1.29039 0C0.577725 0 0 0.577768 0 1.29043C0 2.00309 0.577725 2.58078 1.29039 2.58078Z" transform="translate(17.8307 21.8804) rotate(90)" fill="#EDB455"/>
<path d="M1.29039 2.58078C2.00305 2.58078 2.58077 2.00309 2.58077 1.29043C2.58077 0.577768 2.00305 0 1.29039 0C0.577727 0 0 0.577768 0 1.29043C0 2.00309 0.577727 2.58078 1.29039 2.58078Z" transform="translate(40.1194 65.2837) rotate(90)" fill="#EDB455"/>
<path d="M1.29039 2.58078C2.00305 2.58078 2.58078 2.00309 2.58078 1.29043C2.58078 0.577768 2.00305 0 1.29039 0C0.577732 0 0 0.577768 0 1.29043C0 2.00309 0.577732 2.58078 1.29039 2.58078Z" transform="translate(67.1 417.208) rotate(90)" fill="#EDB455"/>
<path d="M1.29039 2.58078C2.00305 2.58078 2.58078 2.00309 2.58078 1.29043C2.58078 0.577768 2.00305 0 1.29039 0C0.577732 0 0 0.577768 0 1.29043C0 2.00309 0.577732 2.58078 1.29039 2.58078Z" transform="translate(96.4268 527.477) rotate(90)" fill="#EDB455"/>
<path d="M1.29039 2.58078C2.00305 2.58078 2.58078 2.00309 2.58078 1.29043C2.58078 0.577768 2.00305 0 1.29039 0C0.577732 0 0 0.577768 0 1.29043C0 2.00309 0.577732 2.58078 1.29039 2.58078Z" transform="translate(51.85 579.092) rotate(90)" fill="#EDB455"/>
<path d="M1.29039 2.58078C2.00305 2.58078 2.58078 2.00309 2.58078 1.29043C2.58078 0.577768 2.00305 0 1.29039 0C0.577732 0 0 0.577768 0 1.29043C0 2.00309 0.577732 2.58078 1.29039 2.58078Z" transform="translate(2.58081 508.708) rotate(90)" fill="#EDB455"/>
<path d="M3.75382 7.50769C5.82702 7.50769 7.50769 5.82705 7.50769 3.75386C7.50769 1.68067 5.82702 0 3.75382 0C1.68063 0 0 1.68067 0 3.75386C0 5.82705 1.68063 7.50769 3.75382 7.50769Z" transform="translate(1381.37 333.685) rotate(90)" fill="#E4E9F7"/>
<path d="M3.75384 7.50772C5.82703 7.50772 7.5077 5.82705 7.5077 3.75386C7.5077 1.68067 5.82703 0 3.75384 0C1.68065 0 0 1.68067 0 3.75386C0 5.82705 1.68065 7.50772 3.75384 7.50772Z" transform="translate(1152.62 209.456) rotate(90)" fill="#E4E9F7"/>
<path d="M3.75384 7.50769C5.82703 7.50769 7.5077 5.82705 7.5077 3.75386C7.5077 1.68067 5.82703 0 3.75384 0C1.68065 0 0 1.68067 0 3.75386C0 5.82705 1.68065 7.50769 3.75384 7.50769Z" transform="translate(1444.71 195.379) rotate(90)" fill="#E4E9F7"/>
<path d="M2.58078 5.16157C4.0061 5.16157 5.16153 4.0061 5.16153 2.58078C5.16153 1.15546 4.0061 0 2.58078 0C1.15546 0 0 1.15546 0 2.58078C0 4.0061 1.15546 5.16157 2.58078 5.16157Z" transform="translate(1113.9 535.923) rotate(90)" fill="#E4E9F7"/>
<path d="M2.58075 5.16157C4.00607 5.16157 5.16153 4.0061 5.16153 2.58078C5.16153 1.15546 4.00607 0 2.58075 0C1.15543 0 0 1.15546 0 2.58078C0 4.0061 1.15543 5.16157 2.58075 5.16157Z" transform="translate(1293.97 546.715) rotate(90)" fill="#E4E9F7"/>
<path d="M2.58077 5.16157C4.00609 5.16157 5.16154 4.0061 5.16154 2.58078C5.16154 1.15546 4.00609 0 2.58077 0C1.15545 0 0 1.15546 0 2.58078C0 4.0061 1.15545 5.16157 2.58077 5.16157Z" transform="translate(1258.78 77.4844) rotate(90)" fill="#E4E9F7"/>
<path d="M2.58077 5.16157C4.00609 5.16157 5.16154 4.0061 5.16154 2.58078C5.16154 1.15546 4.00609 0 2.58077 0C1.15545 0 0 1.15546 0 2.58078C0 4.0061 1.15545 5.16157 2.58077 5.16157Z" transform="translate(1051.14 75.1387) rotate(90)" fill="#E4E9F7"/>
<path d="M2.58075 5.16157C4.00607 5.16157 5.16153 4.0061 5.16153 2.58078C5.16153 1.15546 4.00607 0 2.58075 0C1.15543 0 0 1.15546 0 2.58078C0 4.0061 1.15543 5.16157 2.58075 5.16157Z" transform="translate(1236.49 354.331) rotate(90)" fill="#E4E9F7"/>
<path d="M2.58075 5.16157C4.00607 5.16157 5.16153 4.0061 5.16153 2.58078C5.16153 1.15546 4.00607 0 2.58075 0C1.15543 0 0 1.15546 0 2.58078C0 4.0061 1.15543 5.16157 2.58075 5.16157Z" transform="translate(1103.93 429.408) rotate(90)" fill="#E4E9F7"/>
<path d="M2.58075 5.16157C4.00607 5.16157 5.16153 4.0061 5.16153 2.58078C5.16153 1.15546 4.00607 0 2.58075 0C1.15543 0 0 1.15546 0 2.58078C0 4.0061 1.15543 5.16157 2.58075 5.16157Z" transform="translate(1235.32 495.101) rotate(90)" fill="#E4E9F7"/>
<path d="M2.58075 5.16153C4.00607 5.16153 5.16153 4.0061 5.16153 2.58078C5.16153 1.15546 4.00607 0 2.58075 0C1.15543 0 0 1.15546 0 2.58078C0 4.0061 1.15543 5.16153 2.58075 5.16153Z" transform="translate(1442.95 522.081) rotate(90)" fill="#E4E9F7"/>
<path d="M2.58077 5.16153C4.00609 5.16153 5.16154 4.0061 5.16154 2.58078C5.16154 1.15546 4.00609 0 2.58077 0C1.15545 0 0 1.15546 0 2.58078C0 4.0061 1.15545 5.16153 2.58077 5.16153Z" transform="translate(1408.93 41.1196) rotate(90)" fill="#E4E9F7"/>
<path d="M2.58075 5.16157C4.00607 5.16157 5.16153 4.0061 5.16153 2.58078C5.16153 1.15546 4.00607 0 2.58075 0C1.15543 0 0 1.15546 0 2.58078C0 4.0061 1.15543 5.16157 2.58075 5.16157Z" transform="translate(1037.07 336.734) rotate(90)" fill="#E4E9F7"/>
<path d="M2.58077 5.16157C4.00608 5.16157 5.16155 4.0061 5.16155 2.58078C5.16155 1.15546 4.00608 0 2.58077 0C1.15545 0 0 1.15546 0 2.58078C0 4.0061 1.15545 5.16157 2.58077 5.16157Z" transform="translate(1258.78 227.639) rotate(90)" fill="#E4E9F7"/>
<path d="M2.58078 5.16153C4.0061 5.16153 5.1615 4.0061 5.1615 2.58078C5.1615 1.15546 4.0061 0 2.58078 0C1.15546 0 0 1.15546 0 2.58078C0 4.0061 1.15546 5.16153 2.58078 5.16153Z" transform="translate(1379.61 599.504) rotate(90)" fill="#E4E9F7"/>
<path d="M1.29037 2.58078C2.00303 2.58078 2.58077 2.00309 2.58077 1.29043C2.58077 0.577768 2.00303 0 1.29037 0C0.577714 0 0 0.577768 0 1.29043C0 2.00309 0.577714 2.58078 1.29037 2.58078Z" transform="translate(1075.43 184.938) rotate(90)" fill="#E4E9F7"/>
<path d="M1.29043 2.58078C2.00309 2.58078 2.58078 2.00309 2.58078 1.29043C2.58078 0.577768 2.00309 0 1.29043 0C0.577768 0 0 0.577768 0 1.29043C0 2.00309 0.577768 2.58078 1.29043 2.58078Z" transform="translate(1274.85 665.899) rotate(90)" fill="#E4E9F7"/>
<path d="M1.29039 2.58071C2.00305 2.58071 2.58078 2.00302 2.58078 1.29036C2.58078 0.577696 2.00305 0 1.29039 0C0.577732 0 0 0.577696 0 1.29036C0 2.00302 0.577732 2.58071 1.29039 2.58071Z" transform="translate(997.3 573.462) rotate(90)" fill="#E4E9F7"/>
<path d="M3.75384 7.50765C5.82703 7.50765 7.50769 5.82698 7.50769 3.75379C7.50769 1.6806 5.82703 0 3.75384 0C1.68065 0 0 1.6806 0 3.75379C0 5.82698 1.68065 7.50765 3.75384 7.50765Z" transform="translate(1344.53 141.065) rotate(90)" fill="#EDB455"/>
<path d="M3.75382 7.50772C5.82702 7.50772 7.50769 5.82705 7.50769 3.75386C7.50769 1.68067 5.82702 0 3.75382 0C1.68063 0 0 1.68067 0 3.75386C0 5.82705 1.68063 7.50772 3.75382 7.50772Z" transform="translate(1322.71 432.223) rotate(90)" fill="#EDB455"/>
<path d="M3.75382 7.50772C5.82702 7.50772 7.50769 5.82705 7.50769 3.75386C7.50769 1.68067 5.82702 0 3.75382 0C1.68063 0 0 1.68067 0 3.75386C0 5.82705 1.68063 7.50772 3.75382 7.50772Z" transform="translate(1029.44 458.031) rotate(90)" fill="#EDB455"/>
<path d="M1.29039 2.58078C2.00305 2.58078 2.58078 2.00305 2.58078 1.29039C2.58078 0.577732 2.00305 0 1.29039 0C0.577732 0 0 0.577732 0 1.29039C0 2.00305 0.577732 2.58078 1.29039 2.58078Z" transform="translate(1441.43 447.708) rotate(90)" fill="#EDB455"/>
<path d="M1.29039 2.58078C2.00304 2.58078 2.58077 2.00309 2.58077 1.29043C2.58077 0.577768 2.00304 0 1.29039 0C0.577725 0 0 0.577768 0 1.29043C0 2.00309 0.577725 2.58078 1.29039 2.58078Z" transform="translate(1076.6 35.9575) rotate(90)" fill="#EDB455"/>
<path d="M1.29039 2.58078C2.00305 2.58078 2.58077 2.00309 2.58077 1.29043C2.58077 0.577768 2.00305 0 1.29039 0C0.577727 0 0 0.577768 0 1.29043C0 2.00309 0.577727 2.58078 1.29039 2.58078Z" transform="translate(1176.31 73.4961) rotate(90)" fill="#EDB455"/>
<path d="M1.29039 2.58078C2.00305 2.58078 2.58078 2.00309 2.58078 1.29043C2.58078 0.577768 2.00305 0 1.29039 0C0.577732 0 0 0.577768 0 1.29043C0 2.00309 0.577732 2.58078 1.29039 2.58078Z" transform="translate(1156.37 550.938) rotate(90)" fill="#EDB455"/>
<path d="M1.29039 2.58078C2.00304 2.58078 2.58077 2.00309 2.58077 1.29043C2.58077 0.577768 2.00304 0 1.29039 0C0.577725 0 0 0.577768 0 1.29043C0 2.00309 0.577725 2.58078 1.29039 2.58078Z" transform="translate(1294.79 31.2651) rotate(90)" fill="#EDB455"/>
<path d="M1.29037 2.58078C2.00303 2.58078 2.58077 2.00309 2.58077 1.29043C2.58077 0.577768 2.00303 0 1.29037 0C0.577714 0 0 0.577768 0 1.29043C0 2.00309 0.577714 2.58078 1.29037 2.58078Z" transform="translate(1329.98 275.265) rotate(90)" fill="#EDB455"/>
<path d="M2.58077 5.16157C4.00608 5.16157 5.16155 4.0061 5.16155 2.58078C5.16155 1.15546 4.00608 0 2.58077 0C1.15545 0 0 1.15546 0 2.58078C0 4.0061 1.15545 5.16157 2.58077 5.16157Z" transform="translate(1022.99 241.716) rotate(90)" fill="#E4E9F7"/>
<path d="M2.58075 5.16157C4.00607 5.16157 5.16153 4.0061 5.16153 2.58078C5.16153 1.15546 4.00607 0 2.58075 0C1.15543 0 0 1.15546 0 2.58078C0 4.0061 1.15543 5.16157 2.58075 5.16157Z" transform="translate(1162.59 463.427) rotate(90)" fill="#E4E9F7"/>
<path d="M3.75386 7.50765C5.82705 7.50765 7.50769 5.82698 7.50769 3.75379C7.50769 1.6806 5.82705 0 3.75386 0C1.68067 0 0 1.6806 0 3.75379C0 5.82698 1.68067 7.50765 3.75386 7.50765Z" transform="translate(1133.38 311.161) rotate(90)" fill="#EDB455"/>
<path d="M1.29039 2.58078C2.00305 2.58078 2.58078 2.00309 2.58078 1.29043C2.58078 0.577768 2.00305 0 1.29039 0C0.577732 0 0 0.577768 0 1.29043C0 2.00309 0.577732 2.58078 1.29039 2.58078Z" transform="translate(1154.02 411.342) rotate(90)" fill="#EDB455"/>
<path d="M3.75386 7.50765C5.82705 7.50765 7.50772 5.82698 7.50772 3.75379C7.50772 1.6806 5.82705 0 3.75386 0C1.68067 0 0 1.6806 0 3.75379C0 5.82698 1.68067 7.50765 3.75386 7.50765Z" transform="translate(1142.17 663.906) rotate(90)" fill="#EDB455"/>
<path d="M3.75386 7.50772C5.82705 7.50772 7.50772 5.82705 7.50772 3.75386C7.50772 1.68067 5.82705 0 3.75386 0C1.68067 0 0 1.68067 0 3.75386C0 5.82705 1.68067 7.50772 3.75386 7.50772Z" transform="translate(1235.9 611.704) rotate(90)" fill="#EDB455"/>
<path d="M3.75385 7.50772C5.82704 7.50772 7.50769 5.82705 7.50769 3.75386C7.50769 1.68067 5.82704 0 3.75385 0C1.68066 0 0 1.68067 0 3.75386C0 5.82705 1.68066 7.50772 3.75385 7.50772Z" transform="translate(1112.73 150.685) rotate(90)" fill="#EDB455"/>
<path d="M2.58077 5.16157C4.00608 5.16157 5.16155 4.0061 5.16155 2.58078C5.16155 1.15546 4.00608 0 2.58077 0C1.15545 0 0 1.15546 0 2.58078C0 4.0061 1.15545 5.16157 2.58077 5.16157Z" transform="translate(998.356 185.408) rotate(90)" fill="#E4E9F7"/>
<path d="M2.58075 5.16153C4.00607 5.16153 5.16153 4.0061 5.16153 2.58078C5.16153 1.15546 4.00607 0 2.58075 0C1.15543 0 0 1.15546 0 2.58078C0 4.0061 1.15543 5.16153 2.58075 5.16153Z" transform="translate(1367.88 524.428) rotate(90)" fill="#E4E9F7"/>
<path d="M2.58075 5.16153C4.00607 5.16153 5.16153 4.0061 5.16153 2.58078C5.16153 1.15546 4.00607 0 2.58075 0C1.15543 0 0 1.15546 0 2.58078C0 4.0061 1.15543 5.16153 2.58075 5.16153Z" transform="translate(1440.61 391.869) rotate(90)" fill="#E4E9F7"/>
<path d="M2.58075 5.16157C4.00607 5.16157 5.16153 4.0061 5.16153 2.58078C5.16153 1.15546 4.00607 0 2.58075 0C1.15543 0 0 1.15546 0 2.58078C0 4.0061 1.15543 5.16157 2.58075 5.16157Z" transform="translate(1264.64 302.716) rotate(90)" fill="#E4E9F7"/>
<path d="M1.29037 2.58078C2.00303 2.58078 2.58077 2.00309 2.58077 1.29043C2.58077 0.577768 2.00303 0 1.29037 0C0.577714 0 0 0.577768 0 1.29043C0 2.00309 0.577714 2.58078 1.29037 2.58078Z" transform="translate(1217.37 164.996) rotate(90)" fill="#EDB455"/>
<path d="M1.29039 2.58078C2.00304 2.58078 2.58077 2.00309 2.58077 1.29043C2.58077 0.577768 2.00304 0 1.29039 0C0.577725 0 0 0.577768 0 1.29043C0 2.00309 0.577725 2.58078 1.29039 2.58078Z" transform="translate(1168.1 25.3999) rotate(90)" fill="#EDB455"/>
<path d="M1.29038 2.58078C2.00304 2.58078 2.58077 2.00309 2.58077 1.29043C2.58077 0.577768 2.00304 0 1.29038 0C0.577723 0 0 0.577768 0 1.29043C0 2.00309 0.577723 2.58078 1.29038 2.58078Z" transform="translate(1001.52 125.111) rotate(90)" fill="#EDB455"/>
<path d="M1.29039 2.58078C2.00305 2.58078 2.58078 2.00309 2.58078 1.29043C2.58078 0.577768 2.00305 0 1.29039 0C0.577732 0 0 0.577768 0 1.29043C0 2.00309 0.577732 2.58078 1.29039 2.58078Z" transform="translate(989.792 387.881) rotate(90)" fill="#EDB455"/>
<path d="M1.29039 2.58078C2.00305 2.58078 2.58078 2.00309 2.58078 1.29043C2.58078 0.577768 2.00305 0 1.29039 0C0.577732 0 0 0.577768 0 1.29043C0 2.00309 0.577732 2.58078 1.29039 2.58078Z" transform="translate(1184.52 316.323) rotate(90)" fill="#EDB455"/>
<path d="M1.29039 2.58078C2.00305 2.58078 2.58078 2.00309 2.58078 1.29043C2.58078 0.577768 2.00305 0 1.29039 0C0.577732 0 0 0.577768 0 1.29043C0 2.00309 0.577732 2.58078 1.29039 2.58078Z" transform="translate(1231.45 435.977) rotate(90)" fill="#EDB455"/>
<path d="M1.29043 2.58078C2.00309 2.58078 2.58078 2.00309 2.58078 1.29043C2.58078 0.577768 2.00309 0 1.29043 0C0.577768 0 0 0.577768 0 1.29043C0 2.00309 0.577768 2.58078 1.29043 2.58078Z" transform="translate(1074.25 633.053) rotate(90)" fill="#EDB455"/>
<path d="M2.58078 5.16157C4.0061 5.16157 5.16157 4.0061 5.16157 2.58078C5.16157 1.15546 4.0061 0 2.58078 0C1.15546 0 0 1.15546 0 2.58078C0 4.0061 1.15546 5.16157 2.58078 5.16157Z" transform="translate(1021.23 634.461) rotate(90)" fill="#E4E9F7"/>
<path d="M3.75382 7.50772C5.82702 7.50772 7.50769 5.82705 7.50769 3.75386C7.50769 1.68067 5.82702 0 3.75382 0C1.68063 0 0 1.68067 0 3.75386C0 5.82705 1.68063 7.50772 3.75382 7.50772Z" transform="translate(1070.5 569.59) rotate(90)" fill="#E4E9F7"/>
<path d="M1.29039 2.58071C2.00305 2.58071 2.58078 2.00302 2.58078 1.29036C2.58078 0.577696 2.00305 0 1.29039 0C0.577732 0 0 0.577696 0 1.29036C0 2.00302 0.577732 2.58071 1.29039 2.58071Z" transform="translate(1341.01 391.635) rotate(90)" fill="#E4E9F7"/>
<path d="M1.29039 2.58078C2.00305 2.58078 2.58077 2.00305 2.58077 1.29039C2.58077 0.577732 2.00305 0 1.29039 0C0.577732 0 0 0.577732 0 1.29039C0 2.00305 0.577732 2.58078 1.29039 2.58078Z" transform="translate(1367.99 226.23) rotate(90)" fill="#E4E9F7"/>
<path d="M1.29039 2.58071C2.00305 2.58071 2.58077 2.00302 2.58077 1.29036C2.58077 0.577696 2.00305 0 1.29039 0C0.577732 0 0 0.577696 0 1.29036C0 2.00302 0.577732 2.58071 1.29039 2.58071Z" transform="translate(1301.13 159.366) rotate(90)" fill="#E4E9F7"/>
<path d="M1.29039 2.58071C2.00305 2.58071 2.58077 2.00302 2.58077 1.29036C2.58077 0.577696 2.00305 0 1.29039 0C0.577732 0 0 0.577696 0 1.29036C0 2.00302 0.577732 2.58071 1.29039 2.58071Z" transform="translate(1100.53 239.135) rotate(90)" fill="#E4E9F7"/>
<path d="M1.29039 2.58078C2.00305 2.58078 2.58078 2.00305 2.58078 1.29039C2.58078 0.577732 2.00305 0 1.29039 0C0.577732 0 0 0.577732 0 1.29039C0 2.00305 0.577732 2.58078 1.29039 2.58078Z" transform="translate(1357.43 586.366) rotate(90)" fill="#E4E9F7"/>
<path d="M1.29038 2.58071C2.00304 2.58071 2.58077 2.00302 2.58077 1.29036C2.58077 0.577696 2.00304 0 1.29038 0C0.577723 0 0 0.577696 0 1.29036C0 2.00302 0.577723 2.58071 1.29038 2.58071Z" transform="translate(1342.18 87.8076) rotate(90)" fill="#E4E9F7"/>
<path d="M1.29038 2.58071C2.00304 2.58071 2.58077 2.00302 2.58077 1.29036C2.58077 0.577696 2.00304 0 1.29038 0C0.577725 0 0 0.577696 0 1.29036C0 2.00302 0.577725 2.58071 1.29038 2.58071Z" transform="translate(1226.05 4.51953) rotate(90)" fill="#E4E9F7"/>
<path d="M1.29039 2.58071C2.00305 2.58071 2.58078 2.00302 2.58078 1.29036C2.58078 0.577696 2.00305 0 1.29039 0C0.577732 0 0 0.577696 0 1.29036C0 2.00302 0.577732 2.58071 1.29039 2.58071Z" transform="translate(1088.8 358.789) rotate(90)" fill="#E4E9F7"/>
<path d="M1.29039 2.58071C2.00305 2.58071 2.58078 2.00302 2.58078 1.29036C2.58078 0.577696 2.00305 0 1.29039 0C0.577732 0 0 0.577696 0 1.29036C0 2.00302 0.577732 2.58071 1.29039 2.58071Z" transform="translate(1195.55 561.731) rotate(90)" fill="#E4E9F7"/>
<path d="M1.29039 2.58078C2.00305 2.58078 2.58078 2.00305 2.58078 1.29039C2.58078 0.577732 2.00305 0 1.29039 0C0.577732 0 0 0.577732 0 1.29039C0 2.00305 0.577732 2.58078 1.29039 2.58078Z" transform="translate(1375.03 452.634) rotate(90)" fill="#E4E9F7"/>
<path d="M1.29036 2.58078C2.00302 2.58078 2.58078 2.00305 2.58078 1.29039C2.58078 0.577732 2.00302 0 1.29036 0C0.577696 0 0 0.577732 0 1.29039C0 2.00305 0.577696 2.58078 1.29036 2.58078Z" transform="translate(1414.92 627.423) rotate(90)" fill="#E4E9F7"/>
<path d="M1.29039 2.58071C2.00305 2.58071 2.58077 2.00302 2.58077 1.29036C2.58077 0.577696 2.00305 0 1.29039 0C0.577732 0 0 0.577696 0 1.29036C0 2.00302 0.577732 2.58071 1.29039 2.58071Z" transform="translate(1181.47 254.385) rotate(90)" fill="#E4E9F7"/>
<path d="M1.29039 2.58071C2.00305 2.58071 2.58078 2.00302 2.58078 1.29036C2.58078 0.577696 2.00305 0 1.29039 0C0.577732 0 0 0.577696 0 1.29036C0 2.00302 0.577732 2.58071 1.29039 2.58071Z" transform="translate(1184.99 367) rotate(90)" fill="#E4E9F7"/>
<path d="M1.29039 2.58071C2.00305 2.58071 2.58077 2.00302 2.58077 1.29036C2.58077 0.577696 2.00305 0 1.29039 0C0.577732 0 0 0.577696 0 1.29036C0 2.00302 0.577732 2.58071 1.29039 2.58071Z" transform="translate(1025.45 290.75) rotate(90)" fill="#E4E9F7"/>
<path d="M1.29039 2.58071C2.00305 2.58071 2.58078 2.00302 2.58078 1.29036C2.58078 0.577696 2.00305 0 1.29039 0C0.577732 0 0 0.577696 0 1.29036C0 2.00302 0.577732 2.58071 1.29039 2.58071Z" transform="translate(1342.18 498.385) rotate(90)" fill="#E4E9F7"/>
<path d="M1.29038 2.58071C2.00304 2.58071 2.58077 2.00302 2.58077 1.29036C2.58077 0.577696 2.00304 0 1.29038 0C0.577723 0 0 0.577696 0 1.29036C0 2.00302 0.577723 2.58071 1.29038 2.58071Z" transform="translate(1204.93 120.653) rotate(90)" fill="#E4E9F7"/>
<path d="M1.29038 2.58071C2.00304 2.58071 2.58077 2.00302 2.58077 1.29036C2.58077 0.577696 2.00304 0 1.29038 0C0.577723 0 0 0.577696 0 1.29036C0 2.00302 0.577723 2.58071 1.29038 2.58071Z" transform="translate(1127.51 120.653) rotate(90)" fill="#E4E9F7"/>
<path d="M1.29038 2.58071C2.00304 2.58071 2.58077 2.00302 2.58077 1.29036C2.58077 0.577696 2.00304 0 1.29038 0C0.577723 0 0 0.577696 0 1.29036C0 2.00302 0.577723 2.58071 1.29038 2.58071Z" transform="translate(1127.51 45.5767) rotate(90)" fill="#E4E9F7"/>
<path d="M1.29037 2.58078C2.00303 2.58078 2.58077 2.00309 2.58077 1.29043C2.58077 0.577768 2.00303 0 1.29037 0C0.577714 0 0 0.577768 0 1.29043C0 2.00309 0.577714 2.58078 1.29037 2.58078Z" transform="translate(1069.56 251.804) rotate(90)" fill="#EDB455"/>
<path d="M1.29039 2.58078C2.00304 2.58078 2.58077 2.00309 2.58077 1.29043C2.58077 0.577768 2.00304 0 1.29039 0C0.577725 0 0 0.577768 0 1.29043C0 2.00309 0.577725 2.58078 1.29039 2.58078Z" transform="translate(996.831 21.8804) rotate(90)" fill="#EDB455"/>
<path d="M1.29039 2.58078C2.00305 2.58078 2.58077 2.00309 2.58077 1.29043C2.58077 0.577768 2.00305 0 1.29039 0C0.577727 0 0 0.577768 0 1.29043C0 2.00309 0.577727 2.58078 1.29039 2.58078Z" transform="translate(1019.12 65.2837) rotate(90)" fill="#EDB455"/>
<path d="M1.29039 2.58078C2.00305 2.58078 2.58078 2.00309 2.58078 1.29043C2.58078 0.577768 2.00305 0 1.29039 0C0.577732 0 0 0.577768 0 1.29043C0 2.00309 0.577732 2.58078 1.29039 2.58078Z" transform="translate(1046.1 417.208) rotate(90)" fill="#EDB455"/>
<path d="M1.29039 2.58078C2.00305 2.58078 2.58078 2.00309 2.58078 1.29043C2.58078 0.577768 2.00305 0 1.29039 0C0.577732 0 0 0.577768 0 1.29043C0 2.00309 0.577732 2.58078 1.29039 2.58078Z" transform="translate(1075.43 527.477) rotate(90)" fill="#EDB455"/>
<path d="M1.29039 2.58078C2.00305 2.58078 2.58078 2.00309 2.58078 1.29043C2.58078 0.577768 2.00305 0 1.29039 0C0.577732 0 0 0.577768 0 1.29043C0 2.00309 0.577732 2.58078 1.29039 2.58078Z" transform="translate(1030.85 579.092) rotate(90)" fill="#EDB455"/>
<path d="M1.29039 2.58078C2.00305 2.58078 2.58078 2.00309 2.58078 1.29043C2.58078 0.577768 2.00305 0 1.29039 0C0.577732 0 0 0.577768 0 1.29043C0 2.00309 0.577732 2.58078 1.29039 2.58078Z" transform="translate(981.581 508.708) rotate(90)" fill="#EDB455"/>
<path d="M2.58077 5.16157C4.00609 5.16157 5.16154 4.0061 5.16154 2.58078C5.16154 1.15546 4.00609 0 2.58077 0C1.15545 0 0 1.15546 0 2.58078C0 4.0061 1.15545 5.16157 2.58077 5.16157Z" transform="translate(1258.78 749.484) rotate(90)" fill="#E4E9F7"/>
<path d="M2.58077 5.16157C4.00609 5.16157 5.16154 4.0061 5.16154 2.58078C5.16154 1.15546 4.00609 0 2.58077 0C1.15545 0 0 1.15546 0 2.58078C0 4.0061 1.15545 5.16157 2.58077 5.16157Z" transform="translate(1051.14 747.139) rotate(90)" fill="#E4E9F7"/>
<path d="M2.58077 5.16153C4.00609 5.16153 5.16154 4.0061 5.16154 2.58078C5.16154 1.15546 4.00609 0 2.58077 0C1.15545 0 0 1.15546 0 2.58078C0 4.0061 1.15545 5.16153 2.58077 5.16153Z" transform="translate(1408.93 713.12) rotate(90)" fill="#E4E9F7"/>
<path d="M1.29039 2.58078C2.00304 2.58078 2.58077 2.00309 2.58077 1.29043C2.58077 0.577768 2.00304 0 1.29039 0C0.577725 0 0 0.577768 0 1.29043C0 2.00309 0.577725 2.58078 1.29039 2.58078Z" transform="translate(1076.6 707.958) rotate(90)" fill="#EDB455"/>
<path d="M1.29039 2.58078C2.00305 2.58078 2.58077 2.00309 2.58077 1.29043C2.58077 0.577768 2.00305 0 1.29039 0C0.577727 0 0 0.577768 0 1.29043C0 2.00309 0.577727 2.58078 1.29039 2.58078Z" transform="translate(1176.31 745.496) rotate(90)" fill="#EDB455"/>
<path d="M1.29039 2.58078C2.00304 2.58078 2.58077 2.00309 2.58077 1.29043C2.58077 0.577768 2.00304 0 1.29039 0C0.577725 0 0 0.577768 0 1.29043C0 2.00309 0.577725 2.58078 1.29039 2.58078Z" transform="translate(1294.79 703.265) rotate(90)" fill="#EDB455"/>
<path d="M1.29039 2.58078C2.00304 2.58078 2.58077 2.00309 2.58077 1.29043C2.58077 0.577768 2.00304 0 1.29039 0C0.577725 0 0 0.577768 0 1.29043C0 2.00309 0.577725 2.58078 1.29039 2.58078Z" transform="translate(1168.1 697.4) rotate(90)" fill="#EDB455"/>
<path d="M1.29038 2.58078C2.00304 2.58078 2.58077 2.00309 2.58077 1.29043C2.58077 0.577768 2.00304 0 1.29038 0C0.577723 0 0 0.577768 0 1.29043C0 2.00309 0.577723 2.58078 1.29038 2.58078Z" transform="translate(1001.52 797.111) rotate(90)" fill="#EDB455"/>
<path d="M1.29038 2.58071C2.00304 2.58071 2.58077 2.00302 2.58077 1.29036C2.58077 0.577696 2.00304 0 1.29038 0C0.577723 0 0 0.577696 0 1.29036C0 2.00302 0.577723 2.58071 1.29038 2.58071Z" transform="translate(1342.18 759.808) rotate(90)" fill="#E4E9F7"/>
<path d="M1.29038 2.58071C2.00304 2.58071 2.58077 2.00302 2.58077 1.29036C2.58077 0.577696 2.00304 0 1.29038 0C0.577725 0 0 0.577696 0 1.29036C0 2.00302 0.577725 2.58071 1.29038 2.58071Z" transform="translate(1226.05 676.52) rotate(90)" fill="#E4E9F7"/>
<path d="M1.29038 2.58071C2.00304 2.58071 2.58077 2.00302 2.58077 1.29036C2.58077 0.577696 2.00304 0 1.29038 0C0.577723 0 0 0.577696 0 1.29036C0 2.00302 0.577723 2.58071 1.29038 2.58071Z" transform="translate(1204.93 792.653) rotate(90)" fill="#E4E9F7"/>
<path d="M1.29038 2.58071C2.00304 2.58071 2.58077 2.00302 2.58077 1.29036C2.58077 0.577696 2.00304 0 1.29038 0C0.577723 0 0 0.577696 0 1.29036C0 2.00302 0.577723 2.58071 1.29038 2.58071Z" transform="translate(1127.51 792.653) rotate(90)" fill="#E4E9F7"/>
<path d="M1.29038 2.58071C2.00304 2.58071 2.58077 2.00302 2.58077 1.29036C2.58077 0.577696 2.00304 0 1.29038 0C0.577723 0 0 0.577696 0 1.29036C0 2.00302 0.577723 2.58071 1.29038 2.58071Z" transform="translate(1127.51 717.577) rotate(90)" fill="#E4E9F7"/>
<path d="M1.29039 2.58078C2.00304 2.58078 2.58077 2.00309 2.58077 1.29043C2.58077 0.577768 2.00304 0 1.29039 0C0.577725 0 0 0.577768 0 1.29043C0 2.00309 0.577725 2.58078 1.29039 2.58078Z" transform="translate(996.831 693.88) rotate(90)" fill="#EDB455"/>
<path d="M1.29039 2.58078C2.00305 2.58078 2.58077 2.00309 2.58077 1.29043C2.58077 0.577768 2.00305 0 1.29039 0C0.577727 0 0 0.577768 0 1.29043C0 2.00309 0.577727 2.58078 1.29039 2.58078Z" transform="translate(1019.12 737.284) rotate(90)" fill="#EDB455"/>
<path d="M3.75385 7.50769C5.82704 7.50769 7.50769 5.82703 7.50769 3.75384C7.50769 1.68065 5.82704 0 3.75385 0C1.68066 0 0 1.68065 0 3.75384C0 5.82703 1.68066 7.50769 3.75385 7.50769Z" transform="translate(903.269 738.514) rotate(90)" fill="#E4E9F7"/>
<path d="M2.58077 5.16153C4.00608 5.16153 5.16153 4.0061 5.16153 2.58078C5.16153 1.15546 4.00608 0 2.58077 0C1.15545 0 0 1.15546 0 2.58078C0 4.0061 1.15545 5.16153 2.58077 5.16153Z" transform="translate(667.481 762.679) rotate(90)" fill="#E4E9F7"/>
<path d="M2.58077 5.16157C4.00609 5.16157 5.16154 4.0061 5.16154 2.58078C5.16154 1.15546 4.00609 0 2.58077 0C1.15545 0 0 1.15546 0 2.58078C0 4.0061 1.15545 5.16157 2.58077 5.16157Z" transform="translate(279.779 748.484) rotate(90)" fill="#E4E9F7"/>
<path d="M2.58077 5.16157C4.00609 5.16157 5.16154 4.0061 5.16154 2.58078C5.16154 1.15546 4.00609 0 2.58077 0C1.15545 0 0 1.15546 0 2.58078C0 4.0061 1.15545 5.16157 2.58077 5.16157Z" transform="translate(72.1442 746.139) rotate(90)" fill="#E4E9F7"/>
<path d="M2.58077 5.16153C4.00609 5.16153 5.16154 4.0061 5.16154 2.58078C5.16154 1.15546 4.00609 0 2.58077 0C1.15545 0 0 1.15546 0 2.58078C0 4.0061 1.15545 5.16153 2.58077 5.16153Z" transform="translate(596.51 797.754) rotate(90)" fill="#E4E9F7"/>
<path d="M2.58077 5.16153C4.00609 5.16153 5.16154 4.0061 5.16154 2.58078C5.16154 1.15546 4.00609 0 2.58077 0C1.15545 0 0 1.15546 0 2.58078C0 4.0061 1.15545 5.16153 2.58077 5.16153Z" transform="translate(429.933 712.12) rotate(90)" fill="#E4E9F7"/>
<path d="M1.29039 2.58077C2.00304 2.58077 2.58077 2.00303 2.58077 1.29037C2.58077 0.577714 2.00304 0 1.29039 0C0.577725 0 0 0.577714 0 1.29037C0 2.00303 0.577725 2.58077 1.29039 2.58077Z" transform="translate(741.619 692.88) rotate(90)" fill="#E4E9F7"/>
<path d="M3.75384 7.50769C5.82704 7.50769 7.50769 5.82703 7.50769 3.75384C7.50769 1.68065 5.82704 0 3.75384 0C1.68065 0 0 1.68065 0 3.75384C0 5.82703 1.68065 7.50769 3.75384 7.50769Z" transform="translate(883.327 699.685) rotate(90)" fill="#EDB455"/>
<path d="M1.29039 2.58078C2.00304 2.58078 2.58077 2.00309 2.58077 1.29043C2.58077 0.577768 2.00304 0 1.29039 0C0.577725 0 0 0.577768 0 1.29043C0 2.00309 0.577725 2.58078 1.29039 2.58078Z" transform="translate(97.6 706.958) rotate(90)" fill="#EDB455"/>
<path d="M1.29039 2.58078C2.00305 2.58078 2.58077 2.00309 2.58077 1.29043C2.58077 0.577768 2.00305 0 1.29039 0C0.577727 0 0 0.577768 0 1.29043C0 2.00309 0.577727 2.58078 1.29039 2.58078Z" transform="translate(197.312 744.496) rotate(90)" fill="#EDB455"/>
<path d="M1.29039 2.58078C2.00304 2.58078 2.58077 2.00309 2.58077 1.29043C2.58077 0.577768 2.00304 0 1.29039 0C0.577725 0 0 0.577768 0 1.29043C0 2.00309 0.577725 2.58078 1.29039 2.58078Z" transform="translate(315.792 702.265) rotate(90)" fill="#EDB455"/>
<path d="M1.29039 2.58078C2.00304 2.58078 2.58077 2.00305 2.58077 1.29039C2.58077 0.577732 2.00304 0 1.29039 0C0.577725 0 0 0.577732 0 1.29039C0 2.00305 0.577725 2.58078 1.29039 2.58078Z" transform="translate(568.004 699.919) rotate(90)" fill="#EDB455"/>
<path d="M2.58077 5.16154C4.00609 5.16154 5.16154 4.00609 5.16154 2.58077C5.16154 1.15545 4.00609 0 2.58077 0C1.15545 0 0 1.15545 0 2.58077C0 4.00609 1.15545 5.16154 2.58077 5.16154Z" transform="translate(840.51 691.004) rotate(90)" fill="#E4E9F7"/>
<path d="M2.58077 5.16153C4.00609 5.16153 5.16154 4.0061 5.16154 2.58078C5.16154 1.15546 4.00609 0 2.58077 0C1.15545 0 0 1.15546 0 2.58078C0 4.0061 1.15545 5.16153 2.58077 5.16153Z" transform="translate(466.298 800.1) rotate(90)" fill="#E4E9F7"/>
<path d="M1.29039 2.58077C2.00305 2.58077 2.58077 2.00303 2.58077 1.29037C2.58077 0.577714 2.00305 0 1.29039 0C0.577727 0 0 0.577714 0 1.29037C0 2.00303 0.577727 2.58077 1.29039 2.58077Z" transform="translate(774.465 722.208) rotate(90)" fill="#EDB455"/>
<path d="M1.29038 2.58077C2.00304 2.58077 2.58077 2.00303 2.58077 1.29037C2.58077 0.577714 2.00304 0 1.29038 0C0.577723 0 0 0.577714 0 1.29037C0 2.00303 0.577723 2.58077 1.29038 2.58077Z" transform="translate(716.985 779.688) rotate(90)" fill="#EDB455"/>
<path d="M1.29039 2.58078C2.00305 2.58078 2.58077 2.00305 2.58077 1.29039C2.58077 0.577732 2.00305 0 1.29039 0C0.577727 0 0 0.577732 0 1.29039C0 2.00305 0.577727 2.58078 1.29039 2.58078Z" transform="translate(487.062 717.515) rotate(90)" fill="#EDB455"/>
<path d="M1.29038 2.58078C2.00304 2.58078 2.58077 2.00305 2.58077 1.29039C2.58077 0.577732 2.00304 0 1.29038 0C0.577723 0 0 0.577732 0 1.29039C0 2.00305 0.577723 2.58078 1.29038 2.58078Z" transform="translate(525.773 807.842) rotate(90)" fill="#EDB455"/>
<path d="M1.29039 2.58078C2.00304 2.58078 2.58077 2.00309 2.58077 1.29043C2.58077 0.577768 2.00304 0 1.29039 0C0.577725 0 0 0.577768 0 1.29043C0 2.00309 0.577725 2.58078 1.29039 2.58078Z" transform="translate(189.1 696.4) rotate(90)" fill="#EDB455"/>
<path d="M1.29038 2.58078C2.00304 2.58078 2.58077 2.00309 2.58077 1.29043C2.58077 0.577768 2.00304 0 1.29038 0C0.577723 0 0 0.577768 0 1.29043C0 2.00309 0.577723 2.58078 1.29038 2.58078Z" transform="translate(22.5229 796.111) rotate(90)" fill="#EDB455"/>
<path d="M1.29038 2.58078C2.00304 2.58078 2.58077 2.00305 2.58077 1.29039C2.58077 0.577732 2.00304 0 1.29038 0C0.577723 0 0 0.577732 0 1.29039C0 2.00305 0.577723 2.58078 1.29038 2.58078Z" transform="translate(630.646 720.096) rotate(90)" fill="#E4E9F7"/>
<path d="M1.29038 2.58078C2.00304 2.58078 2.58077 2.00305 2.58077 1.29039C2.58077 0.577732 2.00304 0 1.29038 0C0.577723 0 0 0.577732 0 1.29039C0 2.00305 0.577723 2.58078 1.29038 2.58078Z" transform="translate(817.165 744.731) rotate(90)" fill="#E4E9F7"/>
<path d="M3.75385 7.50769C5.82704 7.50769 7.50769 5.82704 7.50769 3.75385C7.50769 1.68065 5.82704 0 3.75385 0C1.68066 0 0 1.68065 0 3.75385C0 5.82704 1.68066 7.50769 3.75385 7.50769Z" transform="translate(976 717.398) rotate(90)" fill="#E4E9F7"/>
<path d="M1.29038 2.58077C2.00304 2.58077 2.58077 2.00304 2.58077 1.29039C2.58077 0.577725 2.00304 0 1.29038 0C0.577725 0 0 0.577725 0 1.29039C0 2.00304 0.577725 2.58077 1.29038 2.58077Z" transform="translate(949.723 672) rotate(90)" fill="#E4E9F7"/>
<path d="M1.29038 2.58071C2.00304 2.58071 2.58077 2.00302 2.58077 1.29036C2.58077 0.577696 2.00304 0 1.29038 0C0.577723 0 0 0.577696 0 1.29036C0 2.00302 0.577723 2.58071 1.29038 2.58071Z" transform="translate(363.185 758.808) rotate(90)" fill="#E4E9F7"/>
<path d="M1.29038 2.58071C2.00304 2.58071 2.58077 2.00302 2.58077 1.29036C2.58077 0.577696 2.00304 0 1.29038 0C0.577725 0 0 0.577696 0 1.29036C0 2.00302 0.577725 2.58071 1.29038 2.58071Z" transform="translate(247.05 675.52) rotate(90)" fill="#E4E9F7"/>
<path d="M1.29039 2.58078C2.00304 2.58078 2.58077 2.00305 2.58077 1.29039C2.58077 0.577732 2.00304 0 1.29039 0C0.577725 0 0 0.577732 0 1.29039C0 2.00305 0.577725 2.58078 1.29039 2.58078Z" transform="translate(685.781 701.327) rotate(90)" fill="#E4E9F7"/>
<path d="M1.29038 2.58078C2.00304 2.58078 2.58077 2.00305 2.58077 1.29039C2.58077 0.577732 2.00304 0 1.29038 0C0.577723 0 0 0.577732 0 1.29039C0 2.00305 0.577723 2.58078 1.29038 2.58078Z" transform="translate(769.069 788.135) rotate(90)" fill="#E4E9F7"/>
<path d="M1.29038 2.58071C2.00304 2.58071 2.58077 2.00302 2.58077 1.29036C2.58077 0.577696 2.00304 0 1.29038 0C0.577723 0 0 0.577696 0 1.29036C0 2.00302 0.577723 2.58071 1.29038 2.58071Z" transform="translate(225.935 791.653) rotate(90)" fill="#E4E9F7"/>
<path d="M1.29038 2.58071C2.00304 2.58071 2.58077 2.00302 2.58077 1.29036C2.58077 0.577696 2.00304 0 1.29038 0C0.577723 0 0 0.577696 0 1.29036C0 2.00302 0.577723 2.58071 1.29038 2.58071Z" transform="translate(148.511 791.653) rotate(90)" fill="#E4E9F7"/>
<path d="M1.29038 2.58071C2.00304 2.58071 2.58077 2.00302 2.58077 1.29036C2.58077 0.577696 2.00304 0 1.29038 0C0.577723 0 0 0.577696 0 1.29036C0 2.00302 0.577723 2.58071 1.29038 2.58071Z" transform="translate(148.511 716.577) rotate(90)" fill="#E4E9F7"/>
<path d="M1.29039 2.58078C2.00304 2.58078 2.58077 2.00309 2.58077 1.29043C2.58077 0.577768 2.00304 0 1.29039 0C0.577725 0 0 0.577768 0 1.29043C0 2.00309 0.577725 2.58078 1.29039 2.58078Z" transform="translate(17.8307 692.88) rotate(90)" fill="#EDB455"/>
<path d="M1.29039 2.58078C2.00305 2.58078 2.58077 2.00309 2.58077 1.29043C2.58077 0.577768 2.00305 0 1.29039 0C0.577727 0 0 0.577768 0 1.29043C0 2.00309 0.577727 2.58078 1.29039 2.58078Z" transform="translate(40.1194 736.284) rotate(90)" fill="#EDB455"/>
</g>
</svg>
