<svg width="51" height="51" viewBox="0 0 51 51" fill="none" xmlns="http://www.w3.org/2000/svg">
<path fill-rule="evenodd" clip-rule="evenodd" d="M0 25.5C0 11.4167 11.4167 0 25.5 0C39.5833 0 51 11.4167 51 25.5C51 39.5833 39.5833 51 25.5 51C11.4167 51 0 39.5833 0 25.5Z" fill="#55ACEE"/>
<path fill-rule="evenodd" clip-rule="evenodd" d="M11.9863 5.42672L12.0398 6.30908L11.148 6.20103C7.90167 5.78687 5.06563 4.3823 2.65767 2.02334L1.48045 0.852866L1.17722 1.71722C0.535102 3.644 0.945346 5.67882 2.2831 7.04738C2.99657 7.80368 2.83604 7.91173 1.6053 7.46154C1.17722 7.31749 0.802652 7.20944 0.766979 7.26346C0.642122 7.38951 1.0702 9.02818 1.4091 9.67644C1.87286 10.5768 2.8182 11.4592 3.85273 11.9814L4.72673 12.3955L3.6922 12.4136C2.69335 12.4136 2.65767 12.4316 2.76469 12.8097C3.12143 13.9802 4.53053 15.2227 6.10016 15.7629L7.20604 16.1411L6.24285 16.7173C4.81592 17.5456 3.13926 18.0138 1.46261 18.0498C0.659959 18.0678 0 18.1399 0 18.1939C0 18.374 2.17608 19.3824 3.44249 19.7785C7.24171 20.949 11.7544 20.4448 15.1434 18.446C17.5513 17.0234 19.9593 14.1963 21.083 11.4592C21.6895 10.0006 22.2959 7.33549 22.2959 6.05697C22.2959 5.22864 22.3494 5.12059 23.3483 4.13019C23.9369 3.55396 24.4898 2.92371 24.5968 2.74363C24.7752 2.40149 24.7574 2.40149 23.8477 2.70762C22.3316 3.24784 22.1175 3.17581 22.8667 2.36548C23.4196 1.78925 24.0796 0.744822 24.0796 0.438698C24.0796 0.384676 23.812 0.474713 23.5088 0.636779C23.1877 0.816851 22.4743 1.08696 21.9392 1.24903L20.976 1.55515L20.102 0.96091C19.6204 0.636779 18.9426 0.276633 18.5859 0.168589C17.6762 -0.0835133 16.2849 -0.0474987 15.4644 0.240618C13.2348 1.05095 11.8257 3.13979 11.9863 5.42672Z" transform="translate(12.75 15.2998)" fill="white"/>
</svg>
