<svg width="51" height="51" viewBox="0 0 51 51" fill="none" xmlns="http://www.w3.org/2000/svg">
<path fill-rule="evenodd" clip-rule="evenodd" d="M0 25.5C0 11.4167 11.4167 0 25.5 0C39.5833 0 51 11.4167 51 25.5C51 39.5833 39.5833 51 25.5 51C11.4167 51 0 39.5833 0 25.5Z" fill="#FF0000"/>
<path fill-rule="evenodd" clip-rule="evenodd" d="M26.6316 3.0528C26.3188 1.8511 25.3971 0.904818 24.2267 0.583662C22.1057 0 13.6 0 13.6 0C13.6 0 5.09428 0 2.97315 0.583662C1.80277 0.904818 0.881064 1.8511 0.568264 3.0528C0 5.23073 0 9.775 0 9.775C0 9.775 0 14.3191 0.568264 16.4972C0.881064 17.6989 1.80277 18.6452 2.97315 18.9665C5.09428 19.55 13.6 19.55 13.6 19.55C13.6 19.55 22.1057 19.55 24.2267 18.9665C25.3971 18.6452 26.3188 17.6989 26.6316 16.4972C27.2 14.3191 27.2 9.775 27.2 9.775C27.2 9.775 27.2 5.23073 26.6316 3.0528Z" transform="translate(11.9 16.1499)" fill="white"/>
<path fill-rule="evenodd" clip-rule="evenodd" d="M0 8.5V0L6.8 4.25016L0 8.5Z" transform="translate(22.95 22.1001)" fill="#FF0000"/>
</svg>
