<svg width="51" height="51" viewBox="0 0 51 51" fill="none" xmlns="http://www.w3.org/2000/svg">
<path fill-rule="evenodd" clip-rule="evenodd" d="M0 25.5C0 11.4167 11.4167 0 25.5 0C39.5833 0 51 11.4167 51 25.5C51 39.5833 39.5833 51 25.5 51C11.4167 51 0 39.5833 0 25.5Z" fill="white"/>
<mask id="mask0" mask-type="alpha" maskUnits="userSpaceOnUse" x="0" y="0" width="51" height="51">
<path fill-rule="evenodd" clip-rule="evenodd" d="M0 25.5C0 11.4167 11.4167 0 25.5 0C39.5833 0 51 11.4167 51 25.5C51 39.5833 39.5833 51 25.5 51C11.4167 51 0 39.5833 0 25.5Z" fill="white"/>
</mask>
<g mask="url(#mask0)">
<path fill-rule="evenodd" clip-rule="evenodd" d="M13.6013 0C9.9077 0 9.44417 0.0161502 7.99348 0.0821675C6.54563 0.148468 5.55736 0.377687 4.69262 0.714007C3.79812 1.06138 3.03935 1.52605 2.28341 2.28227C1.5269 3.03822 1.06223 3.79699 0.713724 4.6912C0.376554 5.55622 0.147052 6.54479 0.0818842 7.99207C0.0170002 9.44275 0 9.90657 0 13.6001C0 17.2937 0.0164335 17.7558 0.0821675 19.2065C0.148752 20.6544 0.377971 21.6426 0.714007 22.5074C1.06166 23.4019 1.52633 24.1607 2.28256 24.9166C3.03822 25.6731 3.79699 26.1389 4.69092 26.4863C5.55622 26.8226 6.54479 27.0518 7.99235 27.1181C9.44303 27.1841 9.90629 27.2003 13.5996 27.2003C17.2934 27.2003 17.7556 27.1841 19.2062 27.1181C20.6541 27.0518 21.6435 26.8226 22.5088 26.4863C23.403 26.1389 24.1607 25.6731 24.9163 24.9166C25.6728 24.1607 26.1375 23.4019 26.486 22.5077C26.8203 21.6426 27.0498 20.6541 27.1178 19.2068C27.183 17.7561 27.2 17.2937 27.2 13.6001C27.2 9.90657 27.183 9.44303 27.1178 7.99235C27.0498 6.5445 26.8203 5.55622 26.486 4.69148C26.1375 3.79699 25.6728 3.03822 24.9163 2.28227C24.1598 1.52577 23.4033 1.06109 22.508 0.714007C21.6409 0.377687 20.6521 0.148468 19.2043 0.0821675C17.7536 0.0161502 17.2917 0 13.597 0H13.6013ZM12.3812 2.45115C12.7433 2.45059 13.1474 2.45115 13.6013 2.45115C17.2325 2.45115 17.6629 2.46419 19.0969 2.52935C20.4229 2.58999 21.1426 2.81156 21.622 2.99771C22.2566 3.24421 22.7091 3.53888 23.1848 4.01489C23.6609 4.49089 23.9555 4.94423 24.2026 5.5789C24.3887 6.05774 24.6106 6.77742 24.6709 8.10343C24.7361 9.53711 24.7503 9.96778 24.7503 13.5973C24.7503 17.2269 24.7361 17.6575 24.6709 19.0912C24.6103 20.4172 24.3887 21.1369 24.2026 21.6157C23.9561 22.2504 23.6609 22.7023 23.1848 23.1781C22.7088 23.6541 22.2569 23.9487 21.622 24.1952C21.1431 24.3822 20.4229 24.6032 19.0969 24.6639C17.6632 24.729 17.2325 24.7432 13.6013 24.7432C9.96976 24.7432 9.53937 24.729 8.10569 24.6639C6.77967 24.6027 6.06 24.3811 5.58031 24.1949C4.94564 23.9484 4.4923 23.6538 4.0163 23.1778C3.54029 22.7018 3.24562 22.2496 2.99855 21.6146C2.8124 21.1358 2.59055 20.4161 2.5302 19.0901C2.46503 17.6564 2.452 17.2257 2.452 13.5939C2.452 9.96212 2.46503 9.53371 2.5302 8.10003C2.59083 6.77402 2.8124 6.05434 2.99855 5.57494C3.24505 4.94026 3.54029 4.48693 4.0163 4.01092C4.4923 3.53492 4.94564 3.24025 5.58031 2.99318C6.05972 2.80617 6.77967 2.58517 8.10569 2.52425C9.3603 2.46759 9.84651 2.45059 12.3812 2.44775V2.45115ZM20.8609 4.70906C19.9599 4.70906 19.2289 5.43922 19.2289 6.34051C19.2289 7.24152 19.9599 7.97253 20.8609 7.97253C21.7619 7.97253 22.4929 7.24152 22.4929 6.34051C22.4929 5.4395 21.7619 4.7085 20.8609 4.7085V4.70906ZM13.6013 6.61572C9.74422 6.61572 6.61703 9.7429 6.61703 13.6C6.61703 17.457 9.74422 20.5828 13.6013 20.5828C17.4583 20.5828 20.5844 17.457 20.5844 13.6C20.5844 9.7429 17.458 6.61572 13.601 6.61572H13.6013ZM13.6013 9.06689C16.1048 9.06689 18.1347 11.0964 18.1347 13.6003C18.1347 16.1038 16.1048 18.1337 13.6013 18.1337C11.0974 18.1337 9.0679 16.1038 9.0679 13.6003C9.0679 11.0964 11.0974 9.06689 13.6013 9.06689Z" transform="translate(11.9 11.8999)" fill="black"/>
</g>
</svg>
