<svg width="51" height="51" viewBox="0 0 51 51" fill="none" xmlns="http://www.w3.org/2000/svg">
<path fill-rule="evenodd" clip-rule="evenodd" d="M0 25.5C0 11.4167 11.4167 0 25.5 0C39.5833 0 51 11.4167 51 25.5C51 39.5833 39.5833 51 25.5 51C11.4167 51 0 39.5833 0 25.5Z" fill="#00B900"/>
<path fill-rule="evenodd" clip-rule="evenodd" d="M15.7248 0C7.05484 0 0 5.68326 0 12.669C0 18.9316 5.59431 24.1765 13.1511 25.1683C13.6632 25.2778 14.3602 25.5035 14.5365 25.938C14.6951 26.3328 14.6402 26.9511 14.5872 27.3497C14.5872 27.3497 14.4027 28.4513 14.3629 28.686C14.2945 29.0807 14.047 30.2296 15.7248 29.5275C17.4033 28.8254 24.781 24.2336 28.0801 20.4636C30.3584 17.9826 31.45 15.4648 31.45 12.669C31.45 5.68326 24.3961 0 15.7248 0Z" transform="translate(10.2 11.8999)" fill="white"/>
<path fill-rule="evenodd" clip-rule="evenodd" d="M0.303742 0C0.136191 0 0 0.140591 0 0.313317V7.33668C0 7.50972 0.136191 7.65 0.303742 7.65H1.39656C1.56411 7.65 1.7 7.50972 1.7 7.33668V0.313317C1.7 0.140591 1.56411 0 1.39656 0H0.303742Z" transform="translate(21.25 21.25)" fill="#00B900"/>
<path fill-rule="evenodd" clip-rule="evenodd" d="M6.48056 0H5.33015C5.15376 0 5.01071 0.140591 5.01071 0.313317V4.48593L1.73584 0.139355C1.7283 0.128231 1.71981 0.117726 1.711 0.107529L1.7088 0.105675C1.70252 0.0985681 1.69623 0.0923883 1.68962 0.0862085C1.68774 0.0843546 1.68585 0.0828096 1.68365 0.0809557C1.67831 0.0760118 1.67265 0.0713769 1.66667 0.0670511C1.66416 0.0645791 1.66133 0.0627252 1.6585 0.0605622C1.65284 0.0568543 1.64749 0.0528375 1.64183 0.0494386C1.63869 0.0472756 1.63555 0.0454217 1.63209 0.0438767C1.62643 0.0404778 1.62077 0.0370789 1.61511 0.034298C1.61165 0.0327531 1.60851 0.0308991 1.60505 0.0296631C1.59908 0.0268822 1.5931 0.0241013 1.58681 0.0219384C1.58304 0.0207024 1.5799 0.0194664 1.57644 0.0182305C1.57015 0.0160675 1.56386 0.0139046 1.55726 0.0123596C1.5538 0.0111237 1.55003 0.0105057 1.54625 0.00926973C1.53997 0.00803377 1.53399 0.00648881 1.52802 0.00525285C1.52362 0.00463487 1.5189 0.00401688 1.5145 0.00370789C1.50884 0.00247193 1.50318 0.00216294 1.49752 0.00154496C1.49218 0.000926973 1.48683 0.000926973 1.48117 0.000617982C1.47709 0.000617982 1.47394 0 1.46985 0H0.319752C0.14337 0 0 0.140591 0 0.313317V7.33668C0 7.50972 0.14337 7.65 0.319752 7.65H1.46985C1.64655 7.65 1.78961 7.50972 1.78961 7.33668V3.1653L5.06856 7.51744C5.0912 7.54896 5.11918 7.57461 5.14968 7.595C5.15062 7.59562 5.15188 7.59654 5.15282 7.59747C5.15942 7.60149 5.16603 7.60551 5.17263 7.60921C5.17577 7.61107 5.1786 7.6123 5.18175 7.61385C5.18646 7.61663 5.19181 7.6191 5.19684 7.62126C5.20218 7.62343 5.2069 7.62559 5.21256 7.62775C5.2157 7.62899 5.21885 7.63022 5.22199 7.63115C5.22954 7.63393 5.23645 7.6361 5.24368 7.63826C5.24526 7.63826 5.24683 7.63888 5.2484 7.63919C5.2745 7.64598 5.30185 7.65 5.33015 7.65H6.48056C6.65726 7.65 6.8 7.50972 6.8 7.33668V0.313317C6.8 0.140591 6.65726 0 6.48056 0Z" transform="translate(23.8 21.25)" fill="#00B900"/>
<path fill-rule="evenodd" clip-rule="evenodd" d="M4.78935 5.89129H1.7435V0.313922C1.7435 0.140585 1.60411 0 1.43255 0H0.311263C0.139394 0 0 0.140585 0 0.313922V7.33577V7.33639C0 7.42074 0.0333934 7.49706 0.0870067 7.55329C0.0882321 7.55483 0.0894576 7.55638 0.0912957 7.55792C0.0928275 7.55947 0.0943593 7.56071 0.0958912 7.56225C0.151955 7.61663 0.22732 7.65 0.310957 7.65H4.78935C4.96122 7.65 5.1 7.50911 5.1 7.33577V6.20522C5.1 6.03188 4.96122 5.89129 4.78935 5.89129Z" transform="translate(15.3 21.25)" fill="#00B900"/>
<path fill-rule="evenodd" clip-rule="evenodd" d="M4.78935 1.75871C4.96122 1.75871 5.1 1.61843 5.1 1.44478V0.314231C5.1 0.140894 4.96122 0 4.78935 0H0.311263H0.310651C0.226708 0 0.151036 0.0339876 0.0949721 0.0886768C0.0937466 0.0899128 0.0922148 0.0908397 0.0912957 0.0920756C0.0894576 0.0939295 0.0879257 0.0957834 0.0863939 0.0976372C0.033087 0.153871 0 0.22988 0 0.313922V0.314231V7.33608V7.33639C0 7.42074 0.0333934 7.49706 0.0870067 7.55329C0.0882321 7.55483 0.0897639 7.55669 0.0912957 7.55792C0.0925212 7.55947 0.0943593 7.56101 0.0958912 7.56225C0.151649 7.61632 0.22732 7.65 0.310651 7.65H4.78935C4.96122 7.65 5.1 7.50911 5.1 7.33608V6.20522C5.1 6.03219 4.96122 5.89129 4.78935 5.89129H1.74381V4.7042H4.78935C4.96122 4.7042 5.1 4.56361 5.1 4.39028V3.25972C5.1 3.08639 4.96122 2.94549 4.78935 2.94549H1.74381V1.75871H4.78935Z" transform="translate(31.45 21.25)" fill="#00B900"/>
</svg>
