<svg width="1440" height="467" viewBox="0 0 1440 467" fill="none" xmlns="http://www.w3.org/2000/svg">
<mask id="mask0" mask-type="alpha" maskUnits="userSpaceOnUse" x="0" y="0" width="1440" height="467">
<rect width="1440" height="467" fill="#E5E5E5"/>
</mask>
<g mask="url(#mask0)">
<path d="M38.3604 353.528C42.0004 299.785 45.9204 245.762 49.5605 192.019C36.9603 158.43 24.3602 125.12 11.4801 91.531C7.84007 61.0206 3.92004 30.5103 0 0C10.0801 0 20.4402 -4.27528e-06 30.5203 0.279907C35.2803 26.3116 40.0404 52.3434 45.0804 78.0952L79.2407 130.998C79.2407 130.998 90.7208 143.035 100.801 142.475C110.881 141.915 122.921 139.396 122.921 139.396C122.921 139.396 181.442 135.757 195.162 178.863C208.882 222.249 297.923 391.036 297.923 391.036L270.763 408.39L203.562 305.103C201.042 321.898 198.242 338.693 195.722 355.487C143.361 354.927 91.0008 354.088 38.3604 353.528Z" transform="translate(1185.42 119.937)" fill="#F4B558"/>
<path d="M9.27375 0C7.31373 4.19867 5.07372 10.3567 3.3937 17.6344C1.15368 27.4313 -4.44638 52.6233 6.75372 60.1809C13.1938 64.3796 23.2739 61.8604 29.1539 57.9416C34.474 54.5827 37.274 49.8242 38.394 47.5849" transform="translate(1290.39 183.757)" fill="#EAACAB"/>
<path d="M75.8325 1.19177C75.8325 1.19177 58.1923 3.43106 48.9523 17.1467C39.4322 30.8624 36.0721 50.1762 41.1122 70.6097C45.0322 86.5647 50.0723 95.8017 47.2722 104.479C46.9922 105.879 45.8722 107.278 42.7922 111.757C32.4321 125.472 21.512 134.15 19.832 135.549C5.83185 147.025 -5.08825 176.976 2.47182 203.008C11.7119 234.358 45.8722 250.593 72.7525 250.873C112.233 251.432 120.633 225.96 115.593 204.967C110.553 183.974 105.793 180.615 126.233 138.348C146.953 95.8018 144.153 -12.5239 75.8325 1.19177Z" transform="translate(1257.15 148.416)" fill="#23223A"/>
<path d="M8.13346 0.568104C8.13346 0.568104 0.573408 8.12572 0.0134029 22.1213C-0.2666 36.1168 3.93342 36.6766 3.93342 36.6766C3.93342 36.6766 7.57347 37.7963 10.0935 28.2793C12.8935 18.7623 12.0535 5.32659 11.2135 1.96766C10.9335 -1.39127 8.13346 0.568104 8.13346 0.568104Z" transform="translate(1370.49 306.91)" fill="#1B1B2D"/>
<path d="M5.04005 3.35894C4.48004 3.07903 4.20003 3.35894 3.92003 3.07903C3.36003 3.07903 2.80003 2.79911 1.96002 1.95938L0.279998 0C0.279998 1.11964 0 1.95938 0 3.07903C0.280003 3.35894 0.560003 3.63885 0.840006 3.91876C1.40001 4.47858 1.96002 5.03841 2.80003 5.31832C3.36003 5.59823 4.20004 5.87814 5.04005 5.31832C5.04005 5.31832 6.16006 4.75849 6.16006 4.19867C5.88006 3.63885 5.04005 3.35894 5.04005 3.35894Z" transform="translate(1290.42 220.426)" fill="#3B3C60"/>
<path d="M5.10118 71.9372L0.341134 34.4291C0.341134 34.4291 -1.89889 26.3116 5.10118 22.113C12.1012 17.9143 17.9813 14.5554 19.6613 15.675C21.6213 17.0746 22.4613 26.0317 22.4613 26.0317V3.63884C22.4613 3.63884 22.1813 0 23.5814 0C24.9814 0 25.8214 0.839734 25.8214 2.23929L28.0614 39.7474L33.9414 71.9372" transform="translate(1182 48)" fill="#EAACAB"/>
<path d="M4.48004 69.418L12.6001 18.754L0 0" transform="translate(1376.66 406.286)" fill="#D5944D"/>
<path d="M0 0L2.52003 42.2666L23.5202 63.5398L7.28007 38.3478" transform="translate(1223.22 159.684)" fill="#D5944D"/>
<path d="M29.6321 156.47C28.5121 155.351 27.112 154.231 25.992 152.831C0.791804 126.52 8.63188 89.5716 11.9919 83.1336C15.3519 76.6956 19.552 69.6979 33.2721 56.822C46.9922 43.946 54.2723 32.7496 55.9523 23.5125C57.0723 15.9549 47.5522 4.19867 43.9122 0C46.7122 9.79689 49.2323 16.5147 47.2722 22.9527C46.9922 24.3523 45.8722 25.7518 42.7922 30.2304C32.4321 43.946 21.512 52.6233 19.832 54.0228C5.83185 65.4992 -5.08825 95.4497 2.47182 121.481C6.95186 136.877 17.312 148.633 29.6321 156.47Z" transform="translate(1257.43 229.383)" fill="#1B1B2D"/>
<path d="M26.682 0C24.7219 2.79911 9.88182 22.9527 3.44176 36.9483C-3.55831 52.0635 1.48174 67.4586 6.52178 80.3345C10.4418 90.1314 7.36178 101.328 5.68177 105.806C15.4819 96.5694 17.1619 82.8537 14.0818 70.8175C9.0418 49.8242 4.28176 46.4653 24.722 4.19867C25.562 2.79911 26.122 1.39956 26.682 0Z" transform="translate(1358.66 282.285)" fill="#1B1B2D"/>
</g>
</svg>
